<?xml version="1.0" encoding="utf-8"?>
<!-- Generator: Adobe Illustrator 25.2.0, SVG Export Plug-In . SVG Version: 6.00 Build 0)  -->
<svg version="1.1" id="Ikoner" xmlns="http://www.w3.org/2000/svg" xmlns:xlink="http://www.w3.org/1999/xlink" x="0px" y="0px"
	 viewBox="0 0 500 500" style="enable-background:new 0 0 500 500;" xml:space="preserve">
<style type="text/css">
	.st0{display:none;}
	.st1{display:inline;fill:none;stroke:#1D1D1D;stroke-width:17;stroke-linecap:round;stroke-miterlimit:10;}
	.st2{display:inline;}
	.st3{fill:none;stroke:#1D1D1D;stroke-width:17.8041;stroke-miterlimit:10;}
	.st4{fill:#1D1D1D;}
	.st5{display:inline;fill:none;stroke:#1D1D1D;stroke-width:17;stroke-miterlimit:10;}
	.st6{display:inline;fill:none;stroke:#1D1D1B;stroke-width:17;stroke-miterlimit:10;}
	.st7{display:inline;fill:none;stroke:#1D1D1B;stroke-width:17;stroke-linecap:round;stroke-miterlimit:10;}
	.st8{display:inline;fill:none;stroke:#1D1D1D;stroke-width:16.7543;stroke-miterlimit:10;}
	.st9{display:inline;fill:none;stroke:#1D1D1D;stroke-width:16.6492;stroke-miterlimit:10;}
	.st10{fill:none;stroke:#1D1D1D;stroke-width:17.2951;stroke-linecap:round;stroke-miterlimit:10;}
	.st11{fill:none;stroke:#1D1D1D;stroke-width:17;stroke-miterlimit:10;}
	.st12{display:none;fill:none;stroke:#1D1D1D;stroke-width:17;stroke-miterlimit:10;}
	.st13{display:inline;fill:#1D1D1B;stroke:#1D1D1D;stroke-width:17;stroke-miterlimit:10;}
	.st14{fill:#1D1D1B;stroke:#1D1D1D;stroke-width:17;stroke-miterlimit:10;}
	.st15{display:none;fill:none;stroke:#1D1D1D;stroke-width:17;stroke-linecap:round;stroke-miterlimit:10;}
	.st16{display:inline;fill:#1D1D1D;stroke:#1D1D1D;stroke-width:17;stroke-miterlimit:10;}
</style>
<g id="Kokkehue" class="st0">
	<path class="st1" d="M161.4,280.2c-15.8,13.5-36.5,21.6-59.1,21.6c-49.5,0-89.6-39-89.6-87.1s40.1-87.1,89.6-87.1
		c9.3,0,18.2,1.4,26.6,3.9"/>
	<path class="st1" d="M104,187.5c15.5-68.3,78.1-119.4,153-119.4c51.3,0,96.8,24,125.4,61"/>
	<path class="st1" d="M316.3,179.6c13.8-30.6,45.2-51.9,81.8-51.9c49.3,0,89.2,38.8,89.2,86.7s-40,86.7-89.2,86.7"/>
	<path class="st1" d="M89.5,301.8v118.8c0,6.3,5.2,11.4,11.7,11.4h284c6.5,0,11.7-5.1,11.7-11.4V250.9"/>
</g>
<g id="Indkøbskurv" class="st0">
	<path class="st1" d="M286.3,451.1h-199c-3.4,0-6.4-2.4-7.1-5.7L36.7,254.9c-1-4.6,2.4-8.9,7.1-8.9h208.7H249h208.7
		c4.7,0,8.2,4.4,7.1,8.9l-43.4,190.5c-0.8,3.3-3.7,5.7-7.1,5.7h-199"/>
	<path class="st1" d="M487.9,245.9H12.1c-0.2,0-0.4-0.2-0.4-0.4V193c0-0.2,0.2-0.4,0.4-0.4h475.8c0.2,0,0.4,0.2,0.4,0.4v52.6
		C488.3,245.8,488.1,245.9,487.9,245.9z"/>
	<line class="st1" x1="114.4" y1="192.7" x2="199.9" y2="48.9"/>
	<line class="st1" x1="387.1" y1="192.7" x2="301.6" y2="48.9"/>
	<line class="st1" x1="139.9" y1="289.4" x2="167.4" y2="407.7"/>
	<line class="st1" x1="358.1" y1="289.4" x2="330.6" y2="407.7"/>
	<line class="st1" x1="249" y1="290.9" x2="249" y2="406.1"/>
</g>
<g id="Salt" class="st0">
	<g class="st2">
		<path class="st4" d="M250.3,498.1c-34.9,0-69.9-2.8-104.8-8.3l-0.4-0.1c-23.8-4.9-40.2-16.2-48.6-33.5c-5.3-10.9-6.6-24-3.6-37
			l64.6-283.7l188-0.1l61.8,284.4c2.8,13,1.4,26.1-4,36.9c-8.6,17.2-25.1,28.3-49,33l-0.3,0.1C319.7,495.3,285.1,498.1,250.3,498.1z
			 M148.6,472.2c67.7,10.8,135.8,10.8,202.4,0c18.4-3.6,30.3-11.3,36.3-23.4c3.6-7.2,4.5-16.1,2.5-25.2l-58.8-270.4l-159.4,0.1
			l-61.4,269.9c-2.1,9-1.3,18,2.3,25.2C118.5,460.6,130.3,468.4,148.6,472.2z"/>
	</g>
	<g class="st2">
		<path class="st4" d="M128.2,101.9l0-8.9c0-24.9,13-48.1,36.7-65.4c22.8-16.6,53-25.8,85.1-25.8c32,0,62.3,9.2,85.1,25.8
			c23.7,17.2,36.7,40.5,36.7,65.3v8.9L128.2,101.9z M250,19.7c-28.3,0-54.8,8-74.6,22.4c-16,11.6-25.9,26.3-28.6,42.1l206.5,0
			C347,47.9,303.1,19.7,250,19.7z"/>
	</g>
	<g class="st2">
		
			<rect x="141.9" y="89.6" transform="matrix(0.8816 -0.472 0.472 0.8816 -38.1775 85.2464)" class="st4" width="17.8" height="58.3"/>
	</g>
	<g class="st2">
		
			<rect x="322.1" y="109.7" transform="matrix(0.4331 -0.9013 0.9013 0.4331 91.8039 383.2625)" class="st4" width="56.9" height="17.8"/>
	</g>
</g>
<g id="Rediger" class="st0">
	<path class="st5" d="M123.6,346.2L85.3,490c-0.1,0.4,0.4,0.8,0.7,0.5l114.7-94.9l212-331.7c3.7-5.8,2-13.5-3.8-17.2l-54.8-35
		c-6.6-4.2-15.3-2.3-19.5,4.3L123.6,346.2z"/>
	<line class="st5" x1="193.1" y1="407.4" x2="115.9" y2="358.1"/>
	<line class="st5" x1="323.9" y1="32.7" x2="401.1" y2="82"/>
</g>
<g id="Ur" class="st0">
	<circle class="st6" cx="250" cy="292.1" r="196.4"/>
	<path class="st6" d="M305.8,66.5H189.4c-1.3,0-2.4-1.1-2.4-2.4V13.9c0-1.3,1.1-2.4,2.4-2.4h116.5c1.3,0,2.4,1.1,2.4,2.4v50.1
		C308.3,65.4,307.2,66.5,305.8,66.5z"/>
	<line class="st7" x1="355.8" y1="84.9" x2="398.3" y2="116.3"/>
	<line class="st7" x1="144.2" y1="81.6" x2="101.7" y2="113.1"/>
</g>
<g id="Grønsager" class="st0">
	<path class="st8" d="M320.3,180.9c-16.2-39.2-44.4-48.3-80.7-36.2c-2.8,0.9-5.6,1.8-8.4,2.7c-37.9,11.5-55.4,36.4-43.7,80.4
		c2.5,9.3,6.1,18.3,10.5,26.9c60.7,120.4,121.1,239.7,136,236.6c14.9-0.1,7.1-124.8-5.4-275C327.5,204.1,324.9,192.1,320.3,180.9z"
		/>
	<path class="st9" d="M229.2,143.6c-49.4-11.2-74.2-49-74.3-113.3c0-1,0.9-1.7,1.9-1.5c49.6,11.8,74.3,49.6,74.3,113.3
		C231.1,143.1,230.1,143.9,229.2,143.6z"/>
	<path class="st9" d="M230.8,129.8c1.9,4,4.1,8.1,6.6,12.1c0.7,1.1,2.2,1.3,3.2,0.3c44.4-44.8,53.4-88.7,27.1-131.7
		c-0.7-1.1-2.3-1.3-3.2-0.4c-25.6,26-39.5,51.5-41.7,76.5"/>
</g>
<g id="Vegansk">
	<path class="st10" d="M156.2,370.9C30.1,227.8,123,78.4,379.3,11.7c2.9-0.8,6,1.2,6.5,4.2c36.8,202.6,6.4,370.7-166.4,374.2"/>
	<path class="st10" d="M192.7,488.5c-17.9-146.7,22.2-250.7,93.5-331.8"/>
</g>
<g id="Glutenfri" class="st0">
	<circle class="st5" cx="250" cy="250" r="236.3"/>
	<line class="st5" x1="250" y1="179" x2="250" y2="486.3"/>
	<path class="st5" d="M250.5,189.6c-46.1-50-46.1-100,0-150C295.3,81,295.3,131,250.5,189.6z"/>
	<path class="st5" d="M252.8,318.3c57.5-1.6,94.5-37.7,110.9-108.4C298.3,225.5,259.2,261.2,252.8,318.3z"/>
	<path class="st5" d="M247.2,318.3c-57.5-1.6-94.5-37.7-110.9-108.4C201.7,225.5,240.8,261.2,247.2,318.3z"/>
	<path class="st5" d="M253.1,464.3c64.1-1.8,105.3-42,123.5-120.7C303.8,361,260.2,400.7,253.1,464.3z"/>
	<path class="st5" d="M246.9,464.3c-64.1-1.8-105.3-42-123.5-120.7C196.2,361,239.8,400.7,246.9,464.3z"/>
	<line class="st5" x1="83.4" y1="83.4" x2="416.6" y2="416.6"/>
</g>
<g id="Sukkerfri" class="st0">
	<circle class="st5" cx="250" cy="250" r="236.1"/>
	<g class="st2">
		<polygon class="st11" points="255.3,414.2 102.7,318.9 102.7,162.8 250,85.8 397.3,162.8 397.3,344 		"/>
		<polyline class="st11" points="397.3,162.8 255.3,238.2 102.7,162.8 255.3,238.2 255.3,414.2 		"/>
	</g>
	<line class="st5" x1="92.1" y1="77.5" x2="425" y2="410.3"/>
</g>
<g id="Mail" class="st0">
	<path class="st5" d="M484.6,409.5H15.4c-1.5,0-2.7-1.2-2.7-2.7V93.2c0-1.5,1.2-2.7,2.7-2.7h469.1c1.5,0,2.7,1.2,2.7,2.7v313.6
		C487.2,408.3,486,409.5,484.6,409.5z"/>
	<path class="st5" d="M16.2,93.9l222.3,223.3c6.3,6.4,16.7,6.4,23,0L483.8,93.9"/>
	<line class="st5" x1="483.8" y1="406.1" x2="328.1" y2="250.3"/>
	<line class="st5" x1="16.2" y1="406.1" x2="171.9" y2="250.3"/>
</g>
<path id="Hjerte" class="st12" d="M45.3,254.7l204.6,204.6l205.6-205.6c21.5-21.5,34.7-50.3,34.8-80.7c0-2.2,0-4.5-0.1-6.7
	c-3-68.2-59.4-123.5-127.6-125.5c-46.8-1.3-88.3,21.8-112.6,57.5C224.4,60.8,180,37.2,130.4,41.2c-63.3,5-114.8,56.1-120.3,119.3
	c-0.2,2.3-0.3,4.5-0.4,6.7C8.5,200,22.2,231.5,45.3,254.7z"/>
<g id="Person" class="st0">
	<path class="st1" d="M450.4,490.3c0-110.7-89.7-200.4-200.4-200.4S49.6,379.6,49.6,490.3"/>
	<circle class="st5" cx="255.7" cy="133.4" r="123.7"/>
</g>
<g id="Skraldespand" class="st0">
	<path class="st5" d="M368.9,489.6h-239c-19.8,0-36-15.9-37-36.1L77.8,130.4h348.8l-16.2,318.8C409.3,471.8,391,489.6,368.9,489.6z"
		/>
	<path class="st5" d="M440.7,130.4H59.5c-0.7,0-1.3-0.6-1.3-1.3V76.8c0-1.4,1.1-2.6,2.6-2.6h378.3c1.5,0,2.7,1.2,2.7,2.7v52.3
		C441.8,129.9,441.3,130.4,440.7,130.4z"/>
	<line class="st1" x1="179.8" y1="181.4" x2="200.2" y2="434.3"/>
	<line class="st1" x1="330.4" y1="181.4" x2="310" y2="434.3"/>
	<path class="st1" d="M167.3,51V40.1c0-16.7,13.6-30.3,30.3-30.3h104.7c16.7,0,30.3,13.6,30.3,30.3V51"/>
</g>
<g id="Kalorier" class="st0">
	<path class="st5" d="M274.1,11.8c119.7,0,216.7,97,216.7,216.7H274.1V11.8z"/>
	<path class="st5" d="M225.7,54.8C106,54.8,9,151.8,9,271.5s97,216.7,216.7,216.7s216.7-97,216.7-216.7H225.7V54.8z"/>
</g>
<g id="Søg" class="st0">
	<circle class="st1" cx="166" cy="172.8" r="151.2"/>
	<line class="st1" x1="280.1" y1="273.3" x2="485.2" y2="478.4"/>
</g>
<g id="Laktosefri" class="st0">
	<circle class="st5" cx="250" cy="250" r="237.3"/>
	<line class="st5" x1="82.7" y1="82.7" x2="417.3" y2="417.3"/>
	<path class="st5" d="M200,105.8L200,105.8c-0.9,0-1.7-0.8-1.7-1.7V74.3c0-0.9,0.8-1.7,1.7-1.7H300c0.9,0,1.7,0.8,1.7,1.7v29.8
		c0,0.9-0.8,1.7-1.7,1.7l0,0c-5.7,0-10.2,4.9-9.8,10.6c2.5,35.4,13.4,63.4,29.1,87.1c1.3,1.9,1.9,4.2,1.9,6.6v56.6v-60.3v202.4
		c0,10.3-7.2,18.6-16,18.6H194.7c-8.8,0-16-8.3-16-18.6V212.1c0-3.6,1.1-7.2,3-10.3c15.1-23.4,25.6-50.8,28-85.4
		C210.2,110.6,205.8,105.8,200,105.8z"/>
</g>
<g id="Kød" class="st0">
	<path class="st1" d="M165.3,185.2c9.9,55.4,15.8,59.6-15.9,130.5c-15.6,20.9-15.6,41.7-0.2,62.6c0.1,0.1,0,0.3-0.1,0.3l-40.7,0
		c-0.5,0-1-0.3-1.2-0.8l-11.1-23c-0.2-0.5-0.4-1.1-0.4-1.6l0.6-56.2c0-0.7-0.3-1.5-0.8-2c-47.7-54-43.1-94.7,8.9-144
		c30.1-25.3,71.9-34.4,125.3-27.4c4.7,0.6,9.3,1.2,14,1.5c67.5,5.2,128.1,19.4,177.4,48.3"/>
	<path class="st1" d="M421.2,219.1c-7.9-29.5-1.9-53.6,33.5-66.6c5,15.1,3.3,29.6-3.9,43.8c-0.6,1.2-0.8,2.5-0.6,3.8
		c6.2,36.5,20.3,57.6,39.6,68.6c0.9,0.5,1.3,1.6,1,2.6l-8.5,26.3c-0.1,0.4-0.5,0.7-0.9,0.9c-30.6,7.3-63.3,7.9-97.6,2.5
		c-1.5-0.2-3.1,0.1-4.2,1.1c-20.7,17.2-25,42.7-12.8,76.4c0,0.1,0,0.2-0.1,0.2c-2.6,0-33.6,0-38.2,0c-0.4,0-0.7-0.2-0.8-0.5
		l-4.5-9.4c-4.4-9.1-7.2-18.9-8.5-28.9c-1.7-14.3-4.5-27.5-9-38.5c-47.6,8.1-94.3,1-140.5-14.5"/>
	<path class="st1" d="M86.3,170.2c-22.2-22.9-47.5-25.1-62.8-17.5c-12.8,6.4-22.4,32.5-5.1,44.7c7.9,5.6,13.1,4.3,23.3-5.5"/>
</g>
<g id="Fisk" class="st0">
	<path class="st5" d="M403.3,201c-20.3,17-25,71,10.9,96.4"/>
	<path class="st5" d="M82.6,250.8c-15.2,18.3-13.2,36.5,5.9,54.8"/>
	<path class="st5" d="M332.6,318.4c-14.2,25.5-36.3,35.3-69.2,23.7c10.2-9,25.5-13.7,29.9-19.6"/>
	<path class="st5" d="M218.2,204.4c-7.2-7.2-21.1-9.8-39.3-9.5c-5.9,0.1-1.3-10.2,32.6-18.7c5.2-1.3,10.2-3.4,14.9-6.1
		c10.9-6.4,19.7-13.4,26.7-20.8c1.6-1.7,3.9-2.8,6.2-2.9c11.3-0.3,24.1,11,39.1,40.7"/>
	<path class="st5" d="M466.4,215.7c20.4,6.6,28.3,17.3,20.9,32.5c-3,6.1-7.6,11.1-13.2,15c-5.3,3.7-12.3,8.4-20.7,13.9
		c-9.7,6.4-21.6,13.1-35,18.9c-47.5,20.8-101.7,25.7-157.7,26.9c-25.1,0.5-50.3-2.6-74.3-9.9c-32.2-9.7-60-14.6-81.4-12.4
		c-12,1.2-22.9,7.2-30.7,16.4c-13.7,16.2-30.5,28.7-51.2,36.7c-0.5,0.2-1-0.2-1.1-0.7c-2.2-24.1,0.2-44,6.4-60.5
		c0.8-2.2,0.4-4.5-0.8-6.5c-13.3-20.6-18.6-41.3-17.6-62.2c0-0.4,0.4-0.7,0.8-0.7c19.4,2.4,37.9,8.8,55,21
		c6.5,4.7,14.3,7.4,22.3,7.3c25.8-0.2,48.8-7.2,70.2-18.1c48.3-27.5,88.9-41.1,123.6-44.1C334.9,180.6,466.5,215.7,466.4,215.7"/>
</g>
<g id="Mikrofon" class="st0">
	<path class="st6" d="M250.6,375.4L250.6,375.4c-59.2,0-107.2-48-107.2-107.2V118.3c0-59.2,48-107.2,107.2-107.2h0
		c59.2,0,107.2,48,107.2,107.2v149.9C357.8,327.4,309.8,375.4,250.6,375.4z"/>
	<path class="st7" d="M389.1,202.3h23.3v71.6c0,87.3-72.7,158.1-162.4,158.1c-44.9,0-85.5-17.7-114.9-46.3
		c-29.5-28.6-47.6-68.2-47.6-111.8v-71.6h25.4"/>
	<line class="st7" x1="143.5" y1="488.9" x2="357.8" y2="488.9"/>
	<line class="st6" x1="250" y1="432" x2="250" y2="488.9"/>
	<line class="st7" x1="199.7" y1="136" x2="300.7" y2="136"/>
	<line class="st7" x1="199.7" y1="193.2" x2="300.7" y2="193.2"/>
	<line class="st7" x1="200.1" y1="246.8" x2="301.2" y2="246.8"/>
</g>
<g id="Vis" class="st0">
	<path class="st5" d="M488.8,243C329.6,99.5,170.4,99.5,11.3,243c-3.3,3-3.3,8.2-0.1,11.2c159.2,147.3,318.4,147.3,477.7,0
		C492.1,251.2,492.1,246,488.8,243z"/>
	<ellipse class="st5" cx="250" cy="250" rx="114.4" ry="114.7"/>
	<ellipse class="st13" cx="250" cy="250" rx="57.6" ry="57.7"/>
</g>
<g id="Vis_ikke" class="st0">
	<line class="st1" x1="97.9" y1="97.9" x2="402.1" y2="402.1"/>
	<g class="st2">
		<path class="st11" d="M488.7,243C329.6,99.9,170.4,99.9,11.3,243c-3.3,3-3.3,8.2-0.1,11.2c159.2,146.8,318.3,146.8,477.5,0
			C492,251.2,492,246,488.7,243z"/>
		<circle class="st11" cx="250" cy="250" r="114.3"/>
		<circle class="st14" cx="250" cy="250" r="57.6"/>
	</g>
</g>
<path id="Stjerne" class="st15" d="M383.3,476.7l-125.7-65.5c-4.3-2.3-9.5-2.2-13.8,0l-125.2,66.4c-10.9,5.8-23.6-3.4-21.6-15.6
	l23.5-139.8c0.8-4.8-0.8-9.7-4.3-13.1L14.4,210.6c-8.8-8.5-4-23.5,8.1-25.3l140.2-20.9c4.8-0.7,9-3.8,11.1-8.1l62.3-127.3
	c5.4-11,21.1-11.1,26.6-0.1l63.2,126.9c2.2,4.4,6.4,7.4,11.2,8.1l140.3,19.9c12.2,1.7,17.1,16.7,8.3,25.3l-101.2,99.3
	c-3.5,3.4-5.1,8.3-4.2,13.1L404.8,461C406.9,473.1,394.2,482.4,383.3,476.7z"/>
<g id="Prikker" class="st0">
	<circle class="st16" cx="68.4" cy="250" r="55.8"/>
	<circle class="st16" cx="250" cy="250" r="55.8"/>
	<circle class="st16" cx="431.6" cy="250" r="55.8"/>
</g>
</svg>
