<svg xmlns="http://www.w3.org/2000/svg" viewBox="0 0 155.52 68.25"><defs><style>.cls-1,.cls-2{fill:none;stroke:#1d1d1b;stroke-miterlimit:10;stroke-width:2px;}.cls-1{stroke-linecap:round;}</style></defs><g id="Lag_2" data-name="Lag 2"><g id="Layer_1" data-name="Layer 1"><path class="cls-1" d="M126.78,18.46c-6.49,5.43-8,22.71,3.47,30.82"/><path class="cls-1" d="M24.22,34.37q-7.29,8.77,1.87,17.53"/><path class="cls-1" d="M21,43.14q42.54-12.21,100.6-10.67"/><path class="cls-1" d="M100.63,56c-3.26-6.86-3.8-14.9-2.86-23.56"/><path class="cls-1" d="M67.59,56.48c-3.15-6.83-3.35-14.21-1.59-22"/><path class="cls-2" d="M104.17,56C99.64,64.16,92.56,67.28,82,63.58c3.25-2.88,8.17-4.4,9.55-6.27"/><path class="cls-2" d="M43.74,50.92c-4.74,1.7-6.47,3.54-4.32,5.56l10.89,6.59c3.42,2.35,4.62-1.93,4.71-9.55"/><path class="cls-2" d="M34.19,33.67a11,11,0,0,0-6-3.29.68.68,0,0,1-.38-1.06c2.92-4,6.3-5.79,11.86,2.61"/><path class="cls-2" d="M67.59,19.54c-2.29-2.31-6.76-3.12-12.57-3-1.89,0-.42-3.26,10.42-6A18.29,18.29,0,0,0,70.2,8.59a38.7,38.7,0,0,0,8.55-6.67,2.91,2.91,0,0,1,2-.92c3.63-.08,7.7,3.52,12.49,13"/><path class="cls-2" d="M147,23.14c6.51,2.1,9.06,5.53,6.68,10.38a12.78,12.78,0,0,1-4.21,4.79c-1.7,1.19-3.92,2.67-6.62,4.45a76.17,76.17,0,0,1-11.18,6C116.45,55.45,99.12,57,81.21,57.39a76.38,76.38,0,0,1-23.76-3.16c-10.3-3.11-19.2-4.67-26-4A14.94,14.94,0,0,0,21.6,55.5,40,40,0,0,1,5.24,67.23.26.26,0,0,1,4.89,67c-.69-7.7.08-14.07,2-19.36a2.31,2.31,0,0,0-.26-2.07A33,33,0,0,1,1,25.68a.23.23,0,0,1,.26-.22,37.73,37.73,0,0,1,17.59,6.71A12.22,12.22,0,0,0,26,34.51,49.17,49.17,0,0,0,48.46,28.7C63.9,19.91,76.89,15.55,88,14.59c16.92-2.66,59,8.55,59,8.55"/></g></g></svg>