<svg xmlns="http://www.w3.org/2000/svg" viewBox="0 0 108.58 108.58"><defs><style>.cls-1{fill:none;stroke:#1d1d1b;stroke-miterlimit:10;stroke-width:2px;}</style></defs><g id="Lag_2" data-name="Lag 2"><g id="Layer_1" data-name="Layer 1"><circle class="cls-1" cx="54.29" cy="54.29" r="53.29"/><path class="cls-1" d="M55.06,41.57q11.94-.33,15.36-15C61.36,28.72,56,33.66,55.06,41.57Z"/><line class="cls-1" x1="54.29" y1="28.3" x2="54.29" y2="107.31"/><path class="cls-1" d="M54.35,31.11Q45.08,18.56,54.35,6,63.38,16.41,54.35,31.11Z"/><path class="cls-1" d="M54.29,41.57q-12-.33-15.36-15C48,28.72,53.4,33.66,54.29,41.57Z"/><path class="cls-1" d="M54.72,56.38Q68.21,56,72,39.47C61.83,41.89,55.73,47.46,54.72,56.38Z"/><path class="cls-1" d="M53.86,56.38Q40.39,56,36.54,39.47C46.75,41.89,52.85,47.46,53.86,56.38Z"/><path class="cls-1" d="M54.75,73q14.44-.4,18.57-18.13C62.37,57.43,55.83,63.4,54.75,73Z"/><path class="cls-1" d="M53.83,73q-14.44-.4-18.57-18.13C46.21,57.43,52.75,63.4,53.83,73Z"/><path class="cls-1" d="M54.81,92.1q16.08-.45,20.67-20.19C63.29,74.8,56,81.45,54.81,92.1Z"/><path class="cls-1" d="M53.78,92.1q-16.1-.45-20.68-20.19C45.29,74.8,52.58,81.45,53.78,92.1Z"/><line class="cls-1" x1="16.72" y1="16.72" x2="91.86" y2="91.86"/></g></g></svg>