<svg xmlns="http://www.w3.org/2000/svg" viewBox="0 0 130.53 71.07"><defs><style>.cls-1,.cls-2{fill:none;stroke:#1d1d1b;stroke-miterlimit:10;stroke-width:2px;}.cls-2{stroke-linecap:round;}</style></defs><g id="Lag_2" data-name="Lag 2"><g id="Layer_1" data-name="Layer 1"><path class="cls-1" d="M33.44,4.22C49,17.73,49.49,35,37.83,53.18q-6.27,8.41,0,16.82a0,0,0,0,1,0,.07H26.81a.36.36,0,0,1-.32-.2l-3-6.19a1,1,0,0,1-.09-.44l.16-15.08a.83.83,0,0,0-.21-.54C10.55,33.11,11.79,22.19,25.76,9Q37.91-1.23,59.4,1.62c1.25.16,2.51.31,3.77.4,18.12,1.41,34.4,5.21,47.64,13"/><path class="cls-2" d="M110.81,27.24c-2.13-7.92-.51-14.4,9-17.88a14.75,14.75,0,0,1-1,11.75,1.62,1.62,0,0,0-.17,1c1.66,9.79,5.44,15.46,10.63,18.43a.59.59,0,0,1,.28.69l-2.29,7.06a.33.33,0,0,1-.24.23,67.13,67.13,0,0,1-26.21.67,1.45,1.45,0,0,0-1.14.3Q91.29,56.45,96.18,70s0,0,0,0H85.91a.25.25,0,0,1-.22-.14l-1.21-2.52a24.44,24.44,0,0,1-2.27-7.75A41.08,41.08,0,0,0,79.8,49.31c-12.77,2.18-25.31.27-37.72-3.88"/><path class="cls-1" d="M20.88,14.11C14.92,8,8.12,7.38,4,9.42c-3.43,1.72-4,9.94-1.37,12,2.19,1.72,7.2.25,8.37-2.94"/><path class="cls-1" d="M100.77,49.2a51.94,51.94,0,0,1,1.31-38.59"/><path class="cls-1" d="M79.8,49.31c-2-16.46-.65-31.4,6-43.93"/><path class="cls-1" d="M42.47,15.26c22.1-1,41.1,1.21,55.92,7.88"/><path class="cls-1" d="M45.78,32.27A97.94,97.94,0,0,0,79,33.21"/></g></g></svg>