<?xml version="1.0" encoding="utf-8"?>
<!-- Generator: Adobe Illustrator 19.0.0, SVG Export Plug-In . SVG Version: 6.00 Build 0)  -->
<svg version="1.1" id="Layer_1" xmlns="http://www.w3.org/2000/svg" xmlns:xlink="http://www.w3.org/1999/xlink" x="0px" y="0px"
	 viewBox="0 0 500 500" style="enable-background:new 0 0 500 500;" xml:space="preserve">
<style type="text/css">
	.st0{display:none;}
	.st1{display:inline;}
	.st2{fill:#1D1D1D;}
</style>
<g id="XMLID_1_" class="st0">
	<g class="st1">
		<path id="XMLID_5_" class="st2" d="M108.8,304.9c-49.8,0-90.4-39.5-90.4-87.9S59,129,108.8,129c9.1,0,18.2,1.3,26.8,3.9
			c2.6,0.8,4,3.5,3.2,6c-0.8,2.6-3.5,4-6,3.2c-7.8-2.3-15.9-3.5-24-3.5c-44.5,0-80.7,35.1-80.7,78.3c0,43.2,36.2,78.3,80.7,78.3
			c19.6,0,38.6-6.9,53.3-19.5c2-1.7,5.1-1.5,6.8,0.5c1.7,2,1.5,5.1-0.5,6.8C151.9,297.1,130.7,304.9,108.8,304.9z"/>
	</g>
	<g class="st1">
		<path id="XMLID_4_" class="st2" d="M110.4,195.7c-0.4,0-0.7,0-1.1-0.1c-2.6-0.6-4.2-3.2-3.6-5.8c15.5-68.2,78.9-117.8,150.8-117.8
			c49,0,94.1,21.9,123.6,60.1c1.6,2.1,1.2,5.1-0.9,6.8c-2.1,1.6-5.1,1.2-6.8-0.9c-27.6-35.8-69.9-56.3-115.9-56.3
			c-67.5,0-126.9,46.4-141.4,110.2C114.6,194.2,112.6,195.7,110.4,195.7z"/>
	</g>
	<g class="st1">
		<path id="XMLID_3_" class="st2" d="M391.2,304.3c-2.7,0-4.8-2.2-4.8-4.8c0-2.7,2.2-4.8,4.8-4.8c44.3,0,80.4-35,80.4-78
			s-36.1-78-80.4-78c-31.9,0-60.9,18.3-73.7,46.7c-1.1,2.4-4,3.5-6.4,2.4c-2.4-1.1-3.5-4-2.4-6.4c14.4-31.8,46.7-52.4,82.5-52.4
			c49.6,0,90,39.3,90,87.6C481.2,265,440.8,304.3,391.2,304.3z"/>
	</g>
	<g class="st1">
		<path id="XMLID_2_" class="st2" d="M379,429.1H107.7c-8.8,0-16-7-16-15.7V300.1c0-2.7,2.2-4.8,4.8-4.8c2.7,0,4.8,2.2,4.8,4.8
			v113.4c0,3.3,2.8,6,6.3,6H379c3.5,0,6.3-2.7,6.3-6v-162c0-2.7,2.2-4.8,4.8-4.8s4.8,2.2,4.8,4.8v162
			C394.9,422.1,387.8,429.1,379,429.1z"/>
	</g>
</g>
<g id="XMLID_6_" class="st0">
	<g id="XMLID_16_" class="st1">
		<path id="XMLID_9_" class="st2" d="M92.4,490.8l-9-5.4l1.3-5.4l37.8-141.2L327.1,18.7c6.1-9.5,18.8-12.4,28.4-6.3l53.1,33.9
			c8.8,5.6,11.3,17.3,5.7,26.1L207.4,395.6L92.4,490.8z M134.5,345.3l-31.7,119.1l95-78.6L402.8,65.1c1.6-2.4,0.8-5.7-1.6-7.3
			l-53.1-33.9c-3.2-2.1-7.5-1.1-9.5,2.1L134.5,345.3z"/>
	</g>
	<g id="XMLID_14_" class="st1">
		<polygon id="XMLID_8_" class="st2" points="191.9,407.6 117.1,359.8 124.4,348.3 199.3,396.1 		"/>
	</g>
	<g id="XMLID_12_" class="st1">
		<polygon id="XMLID_7_" class="st2" points="393.7,92.1 318.8,44.3 326.1,32.8 401,80.6 		"/>
	</g>
</g>
<g id="XMLID_13_" class="st0">
	<g class="st1">
		<path id="XMLID_21_" class="st2" d="M250.3,481.7c-105.3,0-191-85.7-191-191s85.7-191,191-191c105.3,0,191,85.7,191,191
			S355.6,481.7,250.3,481.7z M250.3,112c-98.5,0-178.7,80.1-178.7,178.7c0,98.5,80.2,178.7,178.7,178.7
			c98.5,0,178.7-80.1,178.7-178.7C428.9,192.2,348.8,112,250.3,112z"/>
	</g>
	<g class="st1">
		<path id="XMLID_18_" class="st2" d="M279.2,84.5h-62.4c-17.7,0-32-14.4-32-32c0-17.7,14.4-32.1,32-32.1h62.4
			c17.7,0,32,14.4,32,32.1C311.3,70.1,296.9,84.5,279.2,84.5z M216.8,32.8c-10.9,0-19.7,8.8-19.7,19.7c0,10.9,8.8,19.7,19.7,19.7
			h62.4c10.9,0,19.7-8.8,19.7-19.7c0-10.9-8.8-19.7-19.7-19.7H216.8z"/>
	</g>
	<g class="st1">
		<path id="XMLID_17_" class="st2" d="M389.9,131.4c-1.3,0-2.6-0.4-3.7-1.2l-40-29.6c-2.8-2-3.3-5.9-1.3-8.6s5.9-3.3,8.6-1.3
			l40,29.6c2.8,2,3.3,5.9,1.3,8.6C393.6,130.5,391.8,131.4,389.9,131.4z"/>
	</g>
	<g class="st1">
		<path id="XMLID_15_" class="st2" d="M110.7,128.4c-1.9,0-3.8-0.9-5-2.5c-2-2.7-1.4-6.6,1.3-8.6L147,87.6c2.7-2,6.6-1.4,8.6,1.3
			c2,2.7,1.4,6.6-1.3,8.6l-40.1,29.6C113.2,128,111.9,128.4,110.7,128.4z"/>
	</g>
</g>
<g>
	<path id="XMLID_34_" class="st2" d="M341.8,482.7c-14.6,0-43.1-51.8-122.8-209.7c-4.3-8.5-7.4-16.5-9.5-24.4
		c-10.3-38.9,3.6-64.4,41.4-75.9c2.4-0.7,4.8-1.5,7.2-2.3c36.2-12.1,61.9-0.5,76.3,34.2v0c4,9.7,6.6,20.6,7.5,32.3
		c13.8,166.7,15.4,232.6,5.6,243.3c-1.7,1.8-3.5,2.4-4.9,2.5C342.3,482.7,342.1,482.7,341.8,482.7z M283.9,174.7
		c-6.9,0-14.5,1.4-22.9,4.2c-2.5,0.8-4.9,1.6-7.4,2.4c-33.1,10.1-44.3,30.7-35.2,64.9c1.9,7.3,4.8,14.7,8.8,22.7
		c42.1,83.6,99.6,197.6,114.2,204.6c9.9-15.8-3.3-175.3-8.4-235.8c-0.9-10.8-3.2-20.8-6.9-29.6v0
		C316.7,185.6,303.1,174.7,283.9,174.7z"/>
</g>
<g>
	<path id="XMLID_31_" class="st2" d="M264,174c-0.4-15.2,1.9-28.2,4-37.8c0.4-2.1,0.5-4.4,0.1-7.2c-0.2-1.6-0.3-3.2-0.3-4.9
		c0.1-6.8,3.1-13.4,8.1-18.1c4.5-4.3,10-6.5,16.4-6.6c0.9-5.8,4.1-10.7,9.4-14.3c5.7-3.9,10.4-5,15.9-4.8c0.4-5.3,2.5-9.6,6.3-13.1
		c3.1-2.8,7.2-4.5,12.1-5.1c9.7-1.1,15.2,2.7,18.2,6.5c13.5-5.1,21.7,1.1,26.2,7.3c1.4,1.9,1.7,4.2,1.1,6.4
		c-0.7,2.2-2.4,4.1-4.6,4.9c-26.5,9.9-43.6,17.7-50.6,23.2c-27.2,16.2-42.5,36.8-47.1,63l-6.1-1.1c0,0.4,0,0.8,0,1.2L264,174z
		 M292.9,108.4c-4.2,0-7.8,1.4-10.8,4.2c-3.2,3.1-5.2,7.3-5.2,11.7c0,1.2,0.1,2.3,0.2,3.5c0.5,3.8,0.5,7.2-0.2,10.3
		c-1.2,5.7-2.5,12.6-3.2,20.4c7.4-22.6,23.1-40.8,47.5-55.3c7.2-5.7,23.9-13.5,50.5-23.5c-3.9-4.2-8.7-4.9-15.3-2
		c-3.2,1.4-6.9,0.3-8.8-2.6c-1.3-2-3.7-4.6-10.6-3.8c-2,0.2-4.9,0.9-7,2.8c-2.7,2.4-3.7,5.6-3.2,10.1l0.2,2.1l-3.2,3.5l-2.6-0.1
		c-6.9-0.7-9.9-0.1-14.4,3c-4.1,2.8-6,6.4-5.7,11.2l0.1,2.1l-3.3,3l-2.3-0.4C294.6,108.5,293.7,108.4,292.9,108.4z"/>
</g>
<g>
	<path id="XMLID_28_" class="st2" d="M234.7,189.1c-15.6-15.2-35.5-21.5-60.8-19.2c-7.9-0.3-23,2.7-45.4,8.9
		c-2.1,0.6-4.4,0.1-6.1-1.2c-1.7-1.3-2.7-3.3-2.7-5.5c0-9.1,5-15.5,14-18.1c0.3-4.2,2.4-9.3,9.4-13.2c3.6-2,7.4-2.9,11-2.5
		c3,0.3,7,1.6,10.5,5.4c3.6-2.6,7.3-4,12.8-4.2c5.3-0.2,9.8,1.5,13.3,4.8c4.3-2.8,9.1-3.9,14.2-3.3c5.8,0.8,11.2,3.9,14.7,8.5
		c0.8,1.1,1.6,2.3,2.2,3.5c1,1.9,2.1,3.4,3.4,4.5c6.1,5.5,14,13.2,21,23.5l-7.5,5.1c-0.2-0.2-0.3-0.5-0.5-0.7L234.7,189.1z
		 M184,160.3c16.1,0,30.3,3.7,42.6,11.1c-2.6-2.7-5.1-5-7.5-7.2c-2-1.8-3.8-4.1-5.3-7c-0.4-0.8-0.9-1.6-1.5-2.3
		c-2-2.7-5.2-4.5-8.6-5c-3.8-0.5-7.1,0.7-10.5,3.8l-1.5,1.4l-4.2-0.4l-1.3-1.7c-2.1-3.3-4.6-4.5-8.7-4.5c-4.3,0.1-6.4,1.1-10.6,4.8
		l-1.6,1.4l-4.6-0.6l-1.3-2.1c-2.2-3.9-4.7-4.6-6.4-4.8c-2.1-0.2-4.2,0.7-5.6,1.4c-4.5,2.5-4.9,5-4.8,6.9c0.2,3.2-2,6.1-5.2,6.8
		c-5.8,1.3-7.8,4-8.5,6.9c22.1-6,36.7-8.7,44.7-8.4C177.1,160.5,180.6,160.3,184,160.3z"/>
</g>
<g>
	<path id="XMLID_25_" class="st2" d="M246.5,180c-6.4-22.1-18.5-40.8-36.9-57.1c-2.6-2.3-4.5-4.9-5.5-7.6c-1-2.7-2.4-8.5,2.5-13.4
		c-6.9-5.5-9.9-9.8-9.6-14c0.1-1.3,0.5-3.3,2.4-5.2c-8.6-8.7-4.1-16.5-1.7-19.6c-4.8-11.9-5.6-22.8-2.2-30.6
		c2.4-5.5,7-9.5,13.2-11.6c7.4-1.4,13.7,0,18.8,3.7c9.3,6.8,12.3,19.3,13.2,26.1c3.9,0.8,7.1,3.2,8.7,6.6c1.4,2.9,1.7,6.5,0.8,10.6
		c2.2,0.5,3.6,1.6,4.5,2.7c2.8,3.4,2.8,8.7-0.2,17.4c4.9,1.1,8.2,4.5,9.3,9.9c0.6,2.9,0.4,6-0.6,9.4c-6.7,23.7-6.9,46-0.5,68
		l-7.7,2.2c0,0,0,0,0,0.1L246.5,180z M206.1,88.7c0.5,1,2.6,3.9,10.4,9.3l2.1,1.5l-0.3,5.5l-2.5,1.4c-4.6,2.2-3.9,4-3.3,5.7
		c0.5,1.4,1.6,2.8,3.1,4.1c16.6,14.8,28.4,31.3,35.9,50.4c-4-20.1-2.9-40.4,3.2-61.8c0.6-1.9,0.7-3.7,0.4-5.1
		c-0.3-1.7-0.7-3.6-5.8-3l-2.6,0.3l-3.5-4.3l1-2.8c3.6-8.6,3.8-12,3.7-13.2c-0.2,0-0.6,0.1-1.1,0.1c-2,0.4-4.1-0.3-5.4-1.8
		c-1.3-1.6-1.7-3.7-0.9-5.6c1.4-3.6,1.8-6.5,1-8.1c-0.2-0.4-0.8-1.6-3.7-2.5c-3.1-0.9-5.4-3.6-5.9-6.9c-1.3-9.2-4.8-16.5-9.6-20
		c-3.2-2.3-6.9-3-11.3-2.3c-3.2,1.1-5.7,3.3-7.1,6.5c-2.4,5.4-1.5,13.9,2.4,22.7c1.4,3.2,0.9,7-1.4,9.9c-1.4,1.7-3.4,4.3,2.6,9.2
		c1.7,1.4,2.6,3.5,2.4,5.7c-0.2,2.2-1.5,4.1-3.5,5.2C206.2,88.6,206.2,88.7,206.1,88.7z"/>
</g>
</svg>
