<svg xmlns="http://www.w3.org/2000/svg" viewBox="0 0 75.72 149.48"><defs><style>.cls-1,.cls-2{fill:none;stroke:#1d1d1b;stroke-miterlimit:10;stroke-width:2px;}.cls-2{stroke-linecap:round;}</style></defs><g id="Lag_2" data-name="Lag 2"><g id="Layer_1" data-name="Layer 1"><path class="cls-1" d="M68.38,58.17c-4.72-11.41-12.9-14-23.48-10.52-.81.27-1.62.53-2.43.77C31.45,51.78,26.35,59,29.75,71.81a41,41,0,0,0,3,7.83c17.68,35,35.22,69.74,39.55,68.82,4.35,0,2.07-36.31-1.57-80A34.29,34.29,0,0,0,68.38,58.17Z"/><path class="cls-2" d="M49.62,45.43c.44-7.14,3.73-13.7,11.26-19.41,1.76-1.74,5.95-4.33,13.38-8.09a.81.81,0,0,0,.25-1.26c-1.68-1.86-3.74-2.12-6.18-.75a.7.7,0,0,1-.9-.15,3.92,3.92,0,0,0-4.23-1.13A4.66,4.66,0,0,0,60.72,16,4.22,4.22,0,0,0,59.87,20a.12.12,0,0,1-.12.15,6.2,6.2,0,0,0-4.65,1.56A4.49,4.49,0,0,0,53.47,26a0,0,0,0,1,0,0A5.59,5.59,0,0,0,48.85,28a5.76,5.76,0,0,0-1.35,4.26,7.21,7.21,0,0,0,.19,1.13,6.9,6.9,0,0,1,.23,2.39A42.48,42.48,0,0,0,48,45.91"/><path class="cls-2" d="M37.6,48.85C33.31,43.13,27,39.43,17.54,38.79c-2.43-.49-7.35-.37-15.63.56a.81.81,0,0,1-.9-.91c.39-2.48,2-3.83,4.76-4a.73.73,0,0,0,.68-.63c.16-1.48,1.1-2.58,2.91-3.26a4.7,4.7,0,0,1,2.82-.22,4.21,4.21,0,0,1,2.88,2.84.12.12,0,0,0,.18.06A6.16,6.16,0,0,1,20,32a4.5,4.5,0,0,1,3.75,2.75s0,0,.06,0a5.56,5.56,0,0,1,4.89-.89,5.85,5.85,0,0,1,3.47,2.83,8.81,8.81,0,0,1,.45,1,7,7,0,0,0,1.12,2.13,41.9,41.9,0,0,1,5.5,8.5"/><path class="cls-2" d="M44.85,47.51A38,38,0,0,1,45,25.9a4.82,4.82,0,0,0,.14-2.23c-.34-1.67-1.53-2.23-3.29-2a.12.12,0,0,1-.13-.16c1.67-4,1.9-6.47-.75-5.91a.32.32,0,0,1-.37-.42c1.1-2.82.42-4.44-1.74-5.08a1.18,1.18,0,0,1-.82-1c-.61-4.47-3.06-8.87-8-8h0C25.35,2.69,25.74,7.9,27.55,12a1.56,1.56,0,0,1-.25,1.6c-1.22,1.55-1,3.13,1,4.74a.62.62,0,0,1-.11,1c-1.93,1-.37,2.89,3,5.22a.1.1,0,0,1,0,.18c-1.62.77-2.34,1.88-1.72,3.48a4.76,4.76,0,0,0,1.31,1.8A37.9,37.9,0,0,1,42.5,48.22"/></g></g></svg>