<svg xmlns="http://www.w3.org/2000/svg" viewBox="0 0 96.37 84.59"><defs><style>.cls-1{fill:#e30613;stroke:#1d1d1b;stroke-miterlimit:10;stroke-width:2px;}</style></defs><g id="Lag_2" data-name="Lag 2"><g id="Layer_1" data-name="Layer 1"><path class="cls-1" d="M95.37,27a22.76,22.76,0,0,1-6.83,15.85L48.17,83.18,8,43A23.32,23.32,0,0,1,1,25.84c0-.44,0-.88.09-1.32A25.91,25.91,0,0,1,24.71,1.08C25.42,1,26.11,1,26.8,1A25.8,25.8,0,0,1,48.18,12.3,25.81,25.81,0,0,1,69.54,1h.75A26,26,0,0,1,95.35,25.65C95.36,26.09,95.37,26.53,95.37,27Z"/></g></g></svg>