<svg xmlns="http://www.w3.org/2000/svg" viewBox="0 0 134.73 84.46"><defs><style>.cls-1,.cls-2{fill:none;stroke:#1d1d1b;stroke-miterlimit:10;stroke-width:2px;}.cls-2{stroke-linecap:round;}</style></defs><g id="Lag_2" data-name="Lag 2"><g id="Layer_1" data-name="Layer 1"><path class="cls-1" d="M116.26,34.63l11,.13a3.52,3.52,0,0,0,2.43-.93l3.52-3.18a1.68,1.68,0,0,0,.2-2.26l-13.1-17.15a.75.75,0,0,0-.59-.29l-4-.07a0,0,0,0,1,0,0V7.05a.63.63,0,0,0-.2-.46L113.3,4.43c-4.83-5.93-8.14-4.08-9.1,4.91H51.45A83.31,83.31,0,0,1,35.22,7.83a46.61,46.61,0,0,0-14.68-.9C10.88,9,7.51,18.57,9.14,34.12a17.16,17.16,0,0,0,1,4.28A23.19,23.19,0,0,1,9.72,56,9.43,9.43,0,0,0,9,59.63V75.42a2.34,2.34,0,0,0,.25,1.07l3.4,6.72a.46.46,0,0,0,.41.25h9.45a.07.07,0,0,0,.08-.08V78.66a1.6,1.6,0,0,0-.29-.93l-3.51-4.92a2.16,2.16,0,0,1-.39-1.58c1-6.59,2.26-12.67,4.45-17.23a1.05,1.05,0,0,1,1.24-.54c18.81,5.43,35.75,6.47,49.61.25,3.91-.71,4.23,9.34,3.73,21.84a2.11,2.11,0,0,0,.19,1l3,6.72a.36.36,0,0,0,.32.2h9.88a0,0,0,0,0,0,0v-4a.93.93,0,0,0-.17-.53l-3.79-5.08a2.44,2.44,0,0,1-.47-1.45l.22-12.93a4.78,4.78,0,0,1,2.17-3.91A31.48,31.48,0,0,0,100.34,43a67.78,67.78,0,0,1,9.89-11.8,1.66,1.66,0,0,1,2.39.15l2.15,2.57A2,2,0,0,0,116.26,34.63Z"/><line class="cls-2" x1="104.2" y1="9.34" x2="109.54" y2="15.99"/><path class="cls-2" d="M15.26,9.22C6.36,14.41,2.43,23.09,2.91,34.87c.09,6-.39,11.41-1.91,15.7"/><path class="cls-1" d="M35.22,7.83Q22.82,33.44,24.09,53.46"/><path class="cls-1" d="M101.48,41.37c-26.93-2.43-52.87-2.66-77.51,0"/><path class="cls-1" d="M96.44,9.34c.39,11,3.47,19.69,11.38,24.25"/><path class="cls-1" d="M73.7,53.71A171.92,171.92,0,0,1,82.6,9.22"/><path class="cls-1" d="M50.51,39.46A80.78,80.78,0,0,1,56.72,9.34"/></g></g></svg>