<svg xmlns="http://www.w3.org/2000/svg" viewBox="0 0 143 110.11"><defs><style>.cls-1{fill:none;stroke:#1d1d1b;stroke-linecap:round;stroke-miterlimit:10;stroke-width:2px;}</style></defs><g id="Lag_2" data-name="Lag 2"><g id="Layer_1" data-name="Layer 1"><path class="cls-1" d="M45.18,64a27,27,0,0,1-17.57,6.43C12.92,70.45,1,58.87,1,44.58S12.92,18.71,27.61,18.71a27.19,27.19,0,0,1,7.92,1.17"/><path class="cls-1" d="M28.13,36.47C32.72,16.18,51.33,1,73.59,1a46.93,46.93,0,0,1,37.25,18.12"/><path class="cls-1" d="M91.19,34.14a26.57,26.57,0,0,1,24.29-15.43c14.65,0,26.52,11.54,26.52,25.77s-11.87,25.77-26.52,25.77"/><path class="cls-1" d="M23.81,70.45v35.28a3.43,3.43,0,0,0,3.48,3.38h84.39a3.43,3.43,0,0,0,3.48-3.38V55.32"/></g></g></svg>