<?xml version="1.0" encoding="utf-8"?>
<!-- Generator: Adobe Illustrator 19.0.0, SVG Export Plug-In . SVG Version: 6.00 Build 0)  -->
<svg version="1.1" id="Layer_1" xmlns="http://www.w3.org/2000/svg" xmlns:xlink="http://www.w3.org/1999/xlink" x="0px" y="0px"
	 viewBox="0 0 500 500" style="enable-background:new 0 0 500 500;" xml:space="preserve">
<style type="text/css">
	.st0{fill:#1D1D1D;}
</style>
<g>
	<path id="XMLID_5_" class="st0" d="M108.8,304.9c-49.8,0-90.4-39.5-90.4-87.9S59,129,108.8,129c9.1,0,18.2,1.3,26.8,3.9
		c2.6,0.8,4,3.5,3.2,6c-0.8,2.6-3.5,4-6,3.2c-7.8-2.3-15.9-3.5-24-3.5c-44.5,0-80.7,35.1-80.7,78.3c0,43.2,36.2,78.3,80.7,78.3
		c19.6,0,38.6-6.9,53.3-19.5c2-1.7,5.1-1.5,6.8,0.5c1.7,2,1.5,5.1-0.5,6.8C151.9,297.1,130.7,304.9,108.8,304.9z"/>
</g>
<g>
	<path id="XMLID_4_" class="st0" d="M110.4,195.7c-0.4,0-0.7,0-1.1-0.1c-2.6-0.6-4.2-3.2-3.6-5.8c15.5-68.2,78.9-117.8,150.8-117.8
		c49,0,94.1,21.9,123.6,60.1c1.6,2.1,1.2,5.1-0.9,6.8c-2.1,1.6-5.1,1.2-6.8-0.9c-27.6-35.8-69.9-56.3-115.9-56.3
		c-67.5,0-126.9,46.4-141.4,110.2C114.6,194.2,112.6,195.7,110.4,195.7z"/>
</g>
<g>
	<path id="XMLID_3_" class="st0" d="M391.2,304.3c-2.7,0-4.8-2.2-4.8-4.8c0-2.7,2.2-4.8,4.8-4.8c44.3,0,80.4-35,80.4-78
		s-36.1-78-80.4-78c-31.9,0-60.9,18.3-73.7,46.7c-1.1,2.4-4,3.5-6.4,2.4c-2.4-1.1-3.5-4-2.4-6.4c14.4-31.8,46.7-52.4,82.5-52.4
		c49.6,0,90,39.3,90,87.6C481.2,265,440.8,304.3,391.2,304.3z"/>
</g>
<g>
	<path id="XMLID_2_" class="st0" d="M379,429.1H107.7c-8.8,0-16-7-16-15.7V300.1c0-2.7,2.2-4.8,4.8-4.8c2.7,0,4.8,2.2,4.8,4.8v113.4
		c0,3.3,2.8,6,6.3,6H379c3.5,0,6.3-2.7,6.3-6v-162c0-2.7,2.2-4.8,4.8-4.8s4.8,2.2,4.8,4.8v162C394.9,422.1,387.8,429.1,379,429.1z"
		/>
</g>
</svg>
