<svg xmlns="http://www.w3.org/2000/svg" viewBox="0 0 52.66 87.52"><defs><style>.cls-1{fill:none;stroke:#1d1d1b;stroke-miterlimit:10;stroke-width:2px;}</style></defs><g id="Lag_2" data-name="Lag 2"><g id="Layer_1" data-name="Layer 1"><path class="cls-1" d="M11.88,28.63,1.23,75.1a7.81,7.81,0,0,0,.5,5.22C3,82.89,5.46,84.43,8.9,85.13a109.9,109.9,0,0,0,34.77,0c3.45-.67,5.94-2.18,7.23-4.74a7.85,7.85,0,0,0,.55-5.21L41.26,28.61Z"/><rect class="cls-1" x="9.43" y="22.65" width="34.56" height="5.57" rx="2.3" transform="translate(53.42 50.87) rotate(-180)"/><path class="cls-1" d="M45.74,14.81H7.55C7.55,7.18,16.1,1,26.65,1S45.74,7.18,45.74,14.81Z"/><line class="cls-1" x1="45.74" y1="14.81" x2="42.12" y2="22.65"/><line class="cls-1" x1="7.67" y1="14.92" x2="11.3" y2="22.65"/></g></g></svg>