<?xml version="1.0" encoding="utf-8"?>
<!-- Generator: Adobe Illustrator 19.0.0, SVG Export Plug-In . SVG Version: 6.00 Build 0)  -->
<svg version="1.1" id="Layer_1" xmlns="http://www.w3.org/2000/svg" xmlns:xlink="http://www.w3.org/1999/xlink" x="0px" y="0px"
	 viewBox="0 0 500 500" style="enable-background:new 0 0 500 500;" xml:space="preserve">
<style type="text/css">
	.st0{display:none;}
	.st1{display:inline;}
	.st2{fill:#1D1D1D;}
</style>
<g id="XMLID_1_" class="st0">
	<g class="st1">
		<path id="XMLID_5_" class="st2" d="M108.8,304.9c-49.8,0-90.4-39.5-90.4-87.9S59,129,108.8,129c9.1,0,18.2,1.3,26.8,3.9
			c2.6,0.8,4,3.5,3.2,6c-0.8,2.6-3.5,4-6,3.2c-7.8-2.3-15.9-3.5-24-3.5c-44.5,0-80.7,35.1-80.7,78.3c0,43.2,36.2,78.3,80.7,78.3
			c19.6,0,38.6-6.9,53.3-19.5c2-1.7,5.1-1.5,6.8,0.5c1.7,2,1.5,5.1-0.5,6.8C151.9,297.1,130.7,304.9,108.8,304.9z"/>
	</g>
	<g class="st1">
		<path id="XMLID_4_" class="st2" d="M110.4,195.7c-0.4,0-0.7,0-1.1-0.1c-2.6-0.6-4.2-3.2-3.6-5.8c15.5-68.2,78.9-117.8,150.8-117.8
			c49,0,94.1,21.9,123.6,60.1c1.6,2.1,1.2,5.1-0.9,6.8c-2.1,1.6-5.1,1.2-6.8-0.9c-27.6-35.8-69.9-56.3-115.9-56.3
			c-67.5,0-126.9,46.4-141.4,110.2C114.6,194.2,112.6,195.7,110.4,195.7z"/>
	</g>
	<g class="st1">
		<path id="XMLID_3_" class="st2" d="M391.2,304.3c-2.7,0-4.8-2.2-4.8-4.8c0-2.7,2.2-4.8,4.8-4.8c44.3,0,80.4-35,80.4-78
			s-36.1-78-80.4-78c-31.9,0-60.9,18.3-73.7,46.7c-1.1,2.4-4,3.5-6.4,2.4c-2.4-1.1-3.5-4-2.4-6.4c14.4-31.8,46.7-52.4,82.5-52.4
			c49.6,0,90,39.3,90,87.6C481.2,265,440.8,304.3,391.2,304.3z"/>
	</g>
	<g class="st1">
		<path id="XMLID_2_" class="st2" d="M379,429.1H107.7c-8.8,0-16-7-16-15.7V300.1c0-2.7,2.2-4.8,4.8-4.8c2.7,0,4.8,2.2,4.8,4.8
			v113.4c0,3.3,2.8,6,6.3,6H379c3.5,0,6.3-2.7,6.3-6v-162c0-2.7,2.2-4.8,4.8-4.8s4.8,2.2,4.8,4.8v162
			C394.9,422.1,387.8,429.1,379,429.1z"/>
	</g>
</g>
<g id="XMLID_6_" class="st0">
	<g id="XMLID_16_" class="st1">
		<path id="XMLID_9_" class="st2" d="M92.4,490.8l-9-5.4l1.3-5.4l37.8-141.2L327.1,18.7c6.1-9.5,18.8-12.4,28.4-6.3l53.1,33.9
			c8.8,5.6,11.3,17.3,5.7,26.1L207.4,395.6L92.4,490.8z M134.5,345.3l-31.7,119.1l95-78.6L402.8,65.1c1.6-2.4,0.8-5.7-1.6-7.3
			l-53.1-33.9c-3.2-2.1-7.5-1.1-9.5,2.1L134.5,345.3z"/>
	</g>
	<g id="XMLID_14_" class="st1">
		<polygon id="XMLID_8_" class="st2" points="191.9,407.6 117.1,359.8 124.4,348.3 199.3,396.1 		"/>
	</g>
	<g id="XMLID_12_" class="st1">
		<polygon id="XMLID_7_" class="st2" points="393.7,92.1 318.8,44.3 326.1,32.8 401,80.6 		"/>
	</g>
</g>
<g id="XMLID_13_" class="st0">
	<g class="st1">
		<path id="XMLID_21_" class="st2" d="M250.3,481.7c-105.3,0-191-85.7-191-191s85.7-191,191-191c105.3,0,191,85.7,191,191
			S355.6,481.7,250.3,481.7z M250.3,112c-98.5,0-178.7,80.1-178.7,178.7c0,98.5,80.2,178.7,178.7,178.7
			c98.5,0,178.7-80.1,178.7-178.7C428.9,192.2,348.8,112,250.3,112z"/>
	</g>
	<g class="st1">
		<path id="XMLID_18_" class="st2" d="M279.2,84.5h-62.4c-17.7,0-32-14.4-32-32c0-17.7,14.4-32.1,32-32.1h62.4
			c17.7,0,32,14.4,32,32.1C311.3,70.1,296.9,84.5,279.2,84.5z M216.8,32.8c-10.9,0-19.7,8.8-19.7,19.7c0,10.9,8.8,19.7,19.7,19.7
			h62.4c10.9,0,19.7-8.8,19.7-19.7c0-10.9-8.8-19.7-19.7-19.7H216.8z"/>
	</g>
	<g class="st1">
		<path id="XMLID_17_" class="st2" d="M389.9,131.4c-1.3,0-2.6-0.4-3.7-1.2l-40-29.6c-2.8-2-3.3-5.9-1.3-8.6s5.9-3.3,8.6-1.3
			l40,29.6c2.8,2,3.3,5.9,1.3,8.6C393.6,130.5,391.8,131.4,389.9,131.4z"/>
	</g>
	<g class="st1">
		<path id="XMLID_15_" class="st2" d="M110.7,128.4c-1.9,0-3.8-0.9-5-2.5c-2-2.7-1.4-6.6,1.3-8.6L147,87.6c2.7-2,6.6-1.4,8.6,1.3
			c2,2.7,1.4,6.6-1.3,8.6l-40.1,29.6C113.2,128,111.9,128.4,110.7,128.4z"/>
	</g>
</g>
<g id="XMLID_24_" class="st0">
	<g class="st1">
		<path id="XMLID_34_" class="st2" d="M341.8,482.7c-14.6,0-43.1-51.8-122.8-209.7c-4.3-8.5-7.4-16.5-9.5-24.4
			c-10.3-38.9,3.6-64.4,41.4-75.9c2.4-0.7,4.8-1.5,7.2-2.3c36.2-12.1,61.9-0.5,76.3,34.2v0c4,9.7,6.6,20.6,7.5,32.3
			c13.8,166.7,15.4,232.6,5.6,243.3c-1.7,1.8-3.5,2.4-4.9,2.5C342.3,482.7,342.1,482.7,341.8,482.7z M283.9,174.7
			c-6.9,0-14.5,1.4-22.9,4.2c-2.5,0.8-4.9,1.6-7.4,2.4c-33.1,10.1-44.3,30.7-35.2,64.9c1.9,7.3,4.8,14.7,8.8,22.7
			c42.1,83.6,99.6,197.6,114.2,204.6c9.9-15.8-3.3-175.3-8.4-235.8c-0.9-10.8-3.2-20.8-6.9-29.6v0
			C316.7,185.6,303.1,174.7,283.9,174.7z"/>
	</g>
	<g class="st1">
		<path id="XMLID_31_" class="st2" d="M264,174c-0.4-15.2,1.9-28.2,4-37.8c0.4-2.1,0.5-4.4,0.1-7.2c-0.2-1.6-0.3-3.2-0.3-4.9
			c0.1-6.8,3.1-13.4,8.1-18.1c4.5-4.3,10-6.5,16.4-6.6c0.9-5.8,4.1-10.7,9.4-14.3c5.7-3.9,10.4-5,15.9-4.8c0.4-5.3,2.5-9.6,6.3-13.1
			c3.1-2.8,7.2-4.5,12.1-5.1c9.7-1.1,15.2,2.7,18.2,6.5c13.5-5.1,21.7,1.1,26.2,7.3c1.4,1.9,1.7,4.2,1.1,6.4
			c-0.7,2.2-2.4,4.1-4.6,4.9c-26.5,9.9-43.6,17.7-50.6,23.2c-27.2,16.2-42.5,36.8-47.1,63l-6.1-1.1c0,0.4,0,0.8,0,1.2L264,174z
			 M292.9,108.4c-4.2,0-7.8,1.4-10.8,4.2c-3.2,3.1-5.2,7.3-5.2,11.7c0,1.2,0.1,2.3,0.2,3.5c0.5,3.8,0.5,7.2-0.2,10.3
			c-1.2,5.7-2.5,12.6-3.2,20.4c7.4-22.6,23.1-40.8,47.5-55.3c7.2-5.7,23.9-13.5,50.5-23.5c-3.9-4.2-8.7-4.9-15.3-2
			c-3.2,1.4-6.9,0.3-8.8-2.6c-1.3-2-3.7-4.6-10.6-3.8c-2,0.2-4.9,0.9-7,2.8c-2.7,2.4-3.7,5.6-3.2,10.1l0.2,2.1l-3.2,3.5l-2.6-0.1
			c-6.9-0.7-9.9-0.1-14.4,3c-4.1,2.8-6,6.4-5.7,11.2l0.1,2.1l-3.3,3l-2.3-0.4C294.6,108.5,293.7,108.4,292.9,108.4z"/>
	</g>
	<g class="st1">
		<path id="XMLID_28_" class="st2" d="M234.7,189.1c-15.6-15.2-35.5-21.5-60.8-19.2c-7.9-0.3-23,2.7-45.4,8.9
			c-2.1,0.6-4.4,0.1-6.1-1.2c-1.7-1.3-2.7-3.3-2.7-5.5c0-9.1,5-15.5,14-18.1c0.3-4.2,2.4-9.3,9.4-13.2c3.6-2,7.4-2.9,11-2.5
			c3,0.3,7,1.6,10.5,5.4c3.6-2.6,7.3-4,12.8-4.2c5.3-0.2,9.8,1.5,13.3,4.8c4.3-2.8,9.1-3.9,14.2-3.3c5.8,0.8,11.2,3.9,14.7,8.5
			c0.8,1.1,1.6,2.3,2.2,3.5c1,1.9,2.1,3.4,3.4,4.5c6.1,5.5,14,13.2,21,23.5l-7.5,5.1c-0.2-0.2-0.3-0.5-0.5-0.7L234.7,189.1z
			 M184,160.3c16.1,0,30.3,3.7,42.6,11.1c-2.6-2.7-5.1-5-7.5-7.2c-2-1.8-3.8-4.1-5.3-7c-0.4-0.8-0.9-1.6-1.5-2.3
			c-2-2.7-5.2-4.5-8.6-5c-3.8-0.5-7.1,0.7-10.5,3.8l-1.5,1.4l-4.2-0.4l-1.3-1.7c-2.1-3.3-4.6-4.5-8.7-4.5c-4.3,0.1-6.4,1.1-10.6,4.8
			l-1.6,1.4l-4.6-0.6l-1.3-2.1c-2.2-3.9-4.7-4.6-6.4-4.8c-2.1-0.2-4.2,0.7-5.6,1.4c-4.5,2.5-4.9,5-4.8,6.9c0.2,3.2-2,6.1-5.2,6.8
			c-5.8,1.3-7.8,4-8.5,6.9c22.1-6,36.7-8.7,44.7-8.4C177.1,160.5,180.6,160.3,184,160.3z"/>
	</g>
	<g class="st1">
		<path id="XMLID_25_" class="st2" d="M246.5,180c-6.4-22.1-18.5-40.8-36.9-57.1c-2.6-2.3-4.5-4.9-5.5-7.6c-1-2.7-2.4-8.5,2.5-13.4
			c-6.9-5.5-9.9-9.8-9.6-14c0.1-1.3,0.5-3.3,2.4-5.2c-8.6-8.7-4.1-16.5-1.7-19.6c-4.8-11.9-5.6-22.8-2.2-30.6
			c2.4-5.5,7-9.5,13.2-11.6c7.4-1.4,13.7,0,18.8,3.7c9.3,6.8,12.3,19.3,13.2,26.1c3.9,0.8,7.1,3.2,8.7,6.6c1.4,2.9,1.7,6.5,0.8,10.6
			c2.2,0.5,3.6,1.6,4.5,2.7c2.8,3.4,2.8,8.7-0.2,17.4c4.9,1.1,8.2,4.5,9.3,9.9c0.6,2.9,0.4,6-0.6,9.4c-6.7,23.7-6.9,46-0.5,68
			l-7.7,2.2c0,0,0,0,0,0.1L246.5,180z M206.1,88.7c0.5,1,2.6,3.9,10.4,9.3l2.1,1.5l-0.3,5.5l-2.5,1.4c-4.6,2.2-3.9,4-3.3,5.7
			c0.5,1.4,1.6,2.8,3.1,4.1c16.6,14.8,28.4,31.3,35.9,50.4c-4-20.1-2.9-40.4,3.2-61.8c0.6-1.9,0.7-3.7,0.4-5.1
			c-0.3-1.7-0.7-3.6-5.8-3l-2.6,0.3l-3.5-4.3l1-2.8c3.6-8.6,3.8-12,3.7-13.2c-0.2,0-0.6,0.1-1.1,0.1c-2,0.4-4.1-0.3-5.4-1.8
			c-1.3-1.6-1.7-3.7-0.9-5.6c1.4-3.6,1.8-6.5,1-8.1c-0.2-0.4-0.8-1.6-3.7-2.5c-3.1-0.9-5.4-3.6-5.9-6.9c-1.3-9.2-4.8-16.5-9.6-20
			c-3.2-2.3-6.9-3-11.3-2.3c-3.2,1.1-5.7,3.3-7.1,6.5c-2.4,5.4-1.5,13.9,2.4,22.7c1.4,3.2,0.9,7-1.4,9.9c-1.4,1.7-3.4,4.3,2.6,9.2
			c1.7,1.4,2.6,3.5,2.4,5.7c-0.2,2.2-1.5,4.1-3.5,5.2C206.2,88.6,206.2,88.7,206.1,88.7z"/>
	</g>
</g>
<g id="XMLID_37_" class="st0">
	<g class="st1">
		<path id="XMLID_39_" class="st2" d="M223.6,393.1l-0.3-12.7c52.2-1.1,92.7-18.6,120.1-52.2c45.8-56,56.9-157.8,32.2-294.6
			C237.8,69.8,145.5,133.6,122.4,209c-15.4,50.2,0.5,103.9,45.8,155.3l-9.5,8.4c-48.4-54.9-65.2-112.8-48.4-167.5
			c24.8-81.1,118.4-146.6,263.6-184.4c3-0.8,6.3-0.3,9,1.4c2.7,1.7,4.5,4.4,5.1,7.5c25.7,141.2,13.7,247.2-34.6,306.3
			C323.4,372.8,279.7,392,223.6,393.1z"/>
	</g>
	<g class="st1">
		<path id="XMLID_38_" class="st2" d="M191.8,481.1c-15.7-128.4,13.9-233.2,90.4-320.4l9.6,8.4c-74,84.3-102.6,185.9-87.3,310.5
			L191.8,481.1z"/>
	</g>
</g>
<g id="XMLID_40_" class="st0">
	<g class="st1">
		<path id="XMLID_64_" class="st2" d="M250,479.1c-125.9,0-228.3-102.4-228.3-228.3C21.8,125,124.2,22.6,250,22.6
			S478.3,125,478.3,250.9C478.3,376.7,375.9,479.1,250,479.1z M250,35.1c-119,0-215.8,96.8-215.8,215.8S131.1,466.6,250,466.6
			c119,0,215.8-96.8,215.8-215.8S369,35.1,250,35.1z"/>
	</g>
	<g class="st1">
		<path id="XMLID_61_" class="st2" d="M244.6,223.2l0.8-7.1c3.9-34.6,27.7-58.1,68.8-67.9l9.8-2.3l-2.3,9.8
			c-10.1,43.7-33.7,66.3-69.9,67.3L244.6,223.2z M306.7,163.3c-26.6,8.7-42.5,24.3-47.6,46.6C282.3,206.6,297.9,191.3,306.7,163.3z"
			/>
	</g>
	<g class="st1">
		<rect id="XMLID_60_" x="243.8" y="142.6" class="st2" width="12.5" height="329.2"/>
	</g>
	<g class="st1">
		<path id="XMLID_57_" class="st2" d="M250.8,165.4l-5.5-7.5c-27.5-37.2-27.5-74.8,0-112l4.6-6.3l5.1,5.9
			c26.9,31.1,27.1,68.7,0.6,111.9L250.8,165.4z M250.6,60.2c-17.6,27.6-17.9,54.7-0.8,82.3C267,110.7,267.2,83.6,250.6,60.2z"/>
	</g>
	<g class="st1">
		<path id="XMLID_54_" class="st2" d="M255.5,223.2l-7.2-0.2c-36.2-1-59.8-23.6-69.9-67.3l-2.3-9.8l9.8,2.3
			c41.1,9.8,64.9,33.2,68.8,67.9L255.5,223.2z M193.4,163.3c8.8,28,24.5,43.4,47.6,46.6C235.9,187.6,219.9,171.9,193.4,163.3z"/>
	</g>
	<g class="st1">
		<path id="XMLID_51_" class="st2" d="M246.6,313.6l0.8-7.1c4.6-41.3,33-69.2,82.1-80.9l9.8-2.3l-2.3,9.8
			c-12.1,52.2-40.1,79.2-83.3,80.4L246.6,313.6z M322.1,240.5c-34.7,10.7-55.3,30.8-61.2,59.9C291.1,296.9,311.2,277.2,322.1,240.5z
			"/>
	</g>
	<g class="st1">
		<path id="XMLID_48_" class="st2" d="M256.7,313.6l-7.2-0.2c-43.1-1.2-71.1-28.2-83.3-80.4l-2.3-9.8l9.8,2.3
			c49.1,11.7,77.5,39.6,82.1,80.9L256.7,313.6z M181.2,240.5c10.9,36.7,31,56.4,61.2,59.9C236.4,271.3,215.9,251.2,181.2,240.5z"/>
	</g>
	<g class="st1">
		<path id="XMLID_45_" class="st2" d="M244.8,404.2l0.8-7.1c5.1-45.6,36.6-76.6,90.9-89.5l9.8-2.3l-2.3,9.8
			c-13.4,57.7-44.4,87.6-92,89L244.8,404.2z M329.2,322.4c-40.1,12-63.6,35-70.1,68.6C294,387.3,317,364.8,329.2,322.4z"/>
	</g>
	<g class="st1">
		<path id="XMLID_42_" class="st2" d="M254.6,404.2l-7.2-0.2c-47.7-1.3-78.6-31.2-92-89l-2.3-9.8l9.8,2.3
			c54.3,12.9,85.8,43.9,90.9,89.5L254.6,404.2z M170.2,322.4c12.2,42.4,35.3,64.9,70.1,68.6C233.8,357.4,210.3,334.4,170.2,322.4z"
			/>
	</g>
	<g class="st1">
		
			<rect id="XMLID_41_" x="28.7" y="244.6" transform="matrix(0.7071 0.7071 -0.7071 0.7071 250.6298 -103.333)" class="st2" width="442.7" height="12.5"/>
	</g>
</g>
<g id="XMLID_67_" class="st0">
	<g class="st1">
		<path id="XMLID_81_" class="st2" d="M250.7,479.7C122.9,479.7,19,375.8,19,248.1S122.9,16.4,250.7,16.4
			c127.7,0,231.6,103.9,231.6,231.7S378.4,479.7,250.7,479.7z M250.7,29.1c-120.7,0-219,98.2-219,219c0,120.7,98.2,219,219,219
			s219-98.2,219-219C469.6,127.3,371.4,29.1,250.7,29.1z"/>
	</g>
	<g class="st1">
		
			<rect id="XMLID_80_" x="26.1" y="241.7" transform="matrix(0.7071 0.7071 -0.7071 0.7071 248.831 -104.6037)" class="st2" width="449.2" height="12.7"/>
	</g>
	<g class="st1">
		<path id="XMLID_77_" class="st2" d="M319.4,372.3l-75-46.8v-78l73-38.1l73,38.1v89.8L319.4,372.3z M257,318.5l63.1,39.4l57.5-28.4
			v-74.2l-60.3-31.5L257,255.2V318.5z"/>
	</g>
	<g class="st1">
		<polygon id="XMLID_76_" class="st2" points="326.1,365.1 313.4,365.1 313.4,289.4 247.9,257.1 253.5,245.7 319.6,278.4 381,245.8 
			386.9,257 326.1,289.3 		"/>
	</g>
	<g class="st1">
		<path id="XMLID_73_" class="st2" d="M252.7,254.1l-75-46.8v-78l73-38.1l73,38.1V219L252.7,254.1z M190.4,200.2l63.1,39.4
			l57.6-28.4V137l-60.3-31.5L190.4,137V200.2z"/>
	</g>
	<g class="st1">
		<polygon id="XMLID_72_" class="st2" points="259.4,246.8 246.7,246.8 246.7,171.2 181.2,138.8 186.8,127.4 253,160.1 314.3,127.5 
			320.3,138.7 259.4,171 		"/>
	</g>
	<g class="st1">
		<path id="XMLID_69_" class="st2" d="M186.1,364.3l-75-46.8v-78l73-38.1l73,38.1v89.8L186.1,364.3z M123.7,310.4l63,39.4l57.6-28.4
			v-74.2L184,215.7l-60.3,31.5V310.4z"/>
	</g>
	<g class="st1">
		<polygon id="XMLID_68_" class="st2" points="192.8,357.1 180.1,357.1 180.1,281.4 114.6,249 120.2,237.7 186.3,270.3 247.7,237.7 
			253.7,249 192.8,281.3 		"/>
	</g>
</g>
<g id="XMLID_84_" class="st0">
	<g class="st1">
		<path id="XMLID_88_" class="st2" d="M447.7,406H52.8c-19.4,0-35.2-15.8-35.2-35.2V124.3c0-19.4,15.8-35.2,35.2-35.2h394.9
			c19.4,0,35.2,15.8,35.2,35.2v246.5C482.9,390.2,467.1,406,447.7,406z M52.8,101.6c-12.5,0-22.7,10.2-22.7,22.7v246.5
			c0,12.5,10.2,22.7,22.7,22.7h394.9c12.5,0,22.7-10.2,22.7-22.7V124.3c0-12.5-10.2-22.7-22.7-22.7H52.8z"/>
	</g>
	<g class="st1">
		<polygon id="XMLID_87_" class="st2" points="250.2,331.5 22.6,103 31.5,94.2 250.2,313.9 469,94.2 477.8,103 		"/>
	</g>
	<g class="st1">
		
			<rect id="XMLID_86_" x="294" y="315.9" transform="matrix(0.7071 0.7071 -0.7071 0.7071 344.7124 -187.8141)" class="st2" width="210.2" height="12.5"/>
	</g>
	<g class="st1">
		
			<rect id="XMLID_85_" x="95.1" y="217.1" transform="matrix(0.7071 0.7071 -0.7071 0.7071 257.5069 22.677)" class="st2" width="12.5" height="210.2"/>
	</g>
</g>
<g id="XMLID_91_">
	<g>
		<path id="XMLID_97_" class="st2" d="M250.8,479.6c-32.8,0-65.7-2.6-98.5-7.8c-22.8-4.7-38.2-15.2-46.1-31.3
			c-5-10.2-6.2-22.5-3.4-34.6l60.8-265.1l176.8-0.1l58.2,265.8c2.7,12.2,1.3,24.5-3.8,34.6c-8.1,16.1-23.6,26.4-46.1,30.8
			C316.3,477,283.6,479.6,250.8,479.6z M176.9,157.5L119,409.6c-1.9,8.4-1.2,16.8,2.1,23.5c5.6,11.4,16.8,18.7,34.1,22.3
			c63.4,10,127.6,10,190.5,0c17.1-3.3,28.3-10.5,34.1-21.9c3.4-6.7,4.2-15,2.4-23.5L327,157.4L176.9,157.5z"/>
	</g>
	<g>
		<path id="XMLID_94_" class="st2" d="M136,109.5l0-8.3c0-23.3,12.3-45,34.6-61.1c21.5-15.5,49.9-24.1,80-24.1
			c63.2,0,114.6,38.2,114.6,85.2v8.4L136,109.5z M250.6,32.6c-26.6,0-51.6,7.5-70.2,20.9c-15,10.9-24.4,24.6-26.9,39.2l194.4,0
			C341.9,58.9,300.5,32.6,250.6,32.6z"/>
	</g>
	<g>
		
			<rect id="XMLID_93_" x="130" y="116.8" transform="matrix(0.4747 0.8801 -0.8801 0.4747 192.7312 -72.6969)" class="st2" width="54.5" height="16.7"/>
	</g>
	<g>
		
			<rect id="XMLID_92_" x="336.9" y="98.4" transform="matrix(0.9001 0.4357 -0.4357 0.9001 88.9731 -137.9305)" class="st2" width="16.7" height="53.2"/>
	</g>
</g>
</svg>
