<svg xmlns="http://www.w3.org/2000/svg" viewBox="0 0 27.58 23.46"><defs><style>.cls-1,.cls-2{fill:none;stroke:#fff;stroke-linecap:round;stroke-miterlimit:10;}.cls-1{stroke-width:1.15px;}.cls-2{stroke-width:0.83px;}</style></defs><g id="Lag_2" data-name="Lag 2"><g id="Layer_1" data-name="Layer 1"><path class="cls-1" d="M15.8,22.88h-11a.41.41,0,0,1-.4-.31L2,12a.42.42,0,0,1,.4-.5h23a.41.41,0,0,1,.39.5L23.3,22.57a.42.42,0,0,1-.4.31h-11"/><rect class="cls-1" x="0.58" y="8.55" width="26.43" height="2.95" rx="0.35"/><line class="cls-1" x1="6.27" y1="8.55" x2="11.02" y2="0.58"/><line class="cls-1" x1="21.4" y1="8.55" x2="16.65" y2="0.58"/><line class="cls-2" x1="7.69" y1="13.91" x2="9.21" y2="20.47"/><line class="cls-2" x1="19.79" y1="13.91" x2="18.26" y2="20.47"/><line class="cls-2" x1="13.74" y1="14" x2="13.74" y2="20.39"/></g></g></svg>