<?xml version="1.0" encoding="utf-8"?>
<!-- Generator: Adobe Illustrator 19.0.0, SVG Export Plug-In . SVG Version: 6.00 Build 0)  -->
<svg version="1.1" id="Layer_1" xmlns="http://www.w3.org/2000/svg" xmlns:xlink="http://www.w3.org/1999/xlink" x="0px" y="0px"
	 viewBox="0 0 500 500" style="enable-background:new 0 0 500 500;" xml:space="preserve">
<style type="text/css">
	.st0{display:none;}
	.st1{display:inline;}
	.st2{fill:#1D1D1D;}
	.st3{display:inline;fill:#1D1D1D;}
	.st4{fill:#1D1D1D;stroke:#231F20;stroke-width:3;stroke-miterlimit:10;}
</style>
<g id="XMLID_1_" class="st0">
	<g class="st1">
		<path id="XMLID_5_" class="st2" d="M108.8,304.9c-49.8,0-90.4-39.5-90.4-87.9S59,129,108.8,129c9.1,0,18.2,1.3,26.8,3.9
			c2.6,0.8,4,3.5,3.2,6c-0.8,2.6-3.5,4-6,3.2c-7.8-2.3-15.9-3.5-24-3.5c-44.5,0-80.7,35.1-80.7,78.3c0,43.2,36.2,78.3,80.7,78.3
			c19.6,0,38.6-6.9,53.3-19.5c2-1.7,5.1-1.5,6.8,0.5c1.7,2,1.5,5.1-0.5,6.8C151.9,297.1,130.7,304.9,108.8,304.9z"/>
	</g>
	<g class="st1">
		<path id="XMLID_4_" class="st2" d="M110.4,195.7c-0.4,0-0.7,0-1.1-0.1c-2.6-0.6-4.2-3.2-3.6-5.8c15.5-68.2,78.9-117.8,150.8-117.8
			c49,0,94.1,21.9,123.6,60.1c1.6,2.1,1.2,5.1-0.9,6.8c-2.1,1.6-5.1,1.2-6.8-0.9c-27.6-35.8-69.9-56.3-115.9-56.3
			c-67.5,0-126.9,46.4-141.4,110.2C114.6,194.2,112.6,195.7,110.4,195.7z"/>
	</g>
	<g class="st1">
		<path id="XMLID_3_" class="st2" d="M391.2,304.3c-2.7,0-4.8-2.2-4.8-4.8c0-2.7,2.2-4.8,4.8-4.8c44.3,0,80.4-35,80.4-78
			s-36.1-78-80.4-78c-31.9,0-60.9,18.3-73.7,46.7c-1.1,2.4-4,3.5-6.4,2.4c-2.4-1.1-3.5-4-2.4-6.4c14.4-31.8,46.7-52.4,82.5-52.4
			c49.6,0,90,39.3,90,87.6C481.2,265,440.8,304.3,391.2,304.3z"/>
	</g>
	<g class="st1">
		<path id="XMLID_2_" class="st2" d="M379,429.1H107.7c-8.8,0-16-7-16-15.7V300.1c0-2.7,2.2-4.8,4.8-4.8c2.7,0,4.8,2.2,4.8,4.8
			v113.4c0,3.3,2.8,6,6.3,6H379c3.5,0,6.3-2.7,6.3-6v-162c0-2.7,2.2-4.8,4.8-4.8s4.8,2.2,4.8,4.8v162
			C394.9,422.1,387.8,429.1,379,429.1z"/>
	</g>
</g>
<g id="XMLID_6_" class="st0">
	<g id="XMLID_16_" class="st1">
		<path id="XMLID_9_" class="st2" d="M92.4,490.8l-9-5.4l1.3-5.4l37.8-141.2L327.1,18.7c6.1-9.5,18.8-12.4,28.4-6.3l53.1,33.9
			c8.8,5.6,11.3,17.3,5.7,26.1L207.4,395.6L92.4,490.8z M134.5,345.3l-31.7,119.1l95-78.6L402.8,65.1c1.6-2.4,0.8-5.7-1.6-7.3
			l-53.1-33.9c-3.2-2.1-7.5-1.1-9.5,2.1L134.5,345.3z"/>
	</g>
	<g id="XMLID_14_" class="st1">
		<polygon id="XMLID_8_" class="st2" points="191.9,407.6 117.1,359.8 124.4,348.3 199.3,396.1 		"/>
	</g>
	<g id="XMLID_12_" class="st1">
		<polygon id="XMLID_7_" class="st2" points="393.7,92.1 318.8,44.3 326.1,32.8 401,80.6 		"/>
	</g>
</g>
<g id="XMLID_13_" class="st0">
	<g class="st1">
		<path id="XMLID_21_" class="st2" d="M250.3,481.7c-105.3,0-191-85.7-191-191s85.7-191,191-191c105.3,0,191,85.7,191,191
			S355.6,481.7,250.3,481.7z M250.3,112c-98.5,0-178.7,80.1-178.7,178.7c0,98.5,80.2,178.7,178.7,178.7
			c98.5,0,178.7-80.1,178.7-178.7C428.9,192.2,348.8,112,250.3,112z"/>
	</g>
	<g class="st1">
		<path id="XMLID_18_" class="st2" d="M279.2,84.5h-62.4c-17.7,0-32-14.4-32-32c0-17.7,14.4-32.1,32-32.1h62.4
			c17.7,0,32,14.4,32,32.1C311.3,70.1,296.9,84.5,279.2,84.5z M216.8,32.8c-10.9,0-19.7,8.8-19.7,19.7c0,10.9,8.8,19.7,19.7,19.7
			h62.4c10.9,0,19.7-8.8,19.7-19.7c0-10.9-8.8-19.7-19.7-19.7H216.8z"/>
	</g>
	<g class="st1">
		<path id="XMLID_17_" class="st2" d="M389.9,131.4c-1.3,0-2.6-0.4-3.7-1.2l-40-29.6c-2.8-2-3.3-5.9-1.3-8.6s5.9-3.3,8.6-1.3
			l40,29.6c2.8,2,3.3,5.9,1.3,8.6C393.6,130.5,391.8,131.4,389.9,131.4z"/>
	</g>
	<g class="st1">
		<path id="XMLID_15_" class="st2" d="M110.7,128.4c-1.9,0-3.8-0.9-5-2.5c-2-2.7-1.4-6.6,1.3-8.6L147,87.6c2.7-2,6.6-1.4,8.6,1.3
			c2,2.7,1.4,6.6-1.3,8.6l-40.1,29.6C113.2,128,111.9,128.4,110.7,128.4z"/>
	</g>
</g>
<g id="XMLID_24_" class="st0">
	<g class="st1">
		<path id="XMLID_34_" class="st2" d="M341.8,482.7c-14.6,0-43.1-51.8-122.8-209.7c-4.3-8.5-7.4-16.5-9.5-24.4
			c-10.3-38.9,3.6-64.4,41.4-75.9c2.4-0.7,4.8-1.5,7.2-2.3c36.2-12.1,61.9-0.5,76.3,34.2v0c4,9.7,6.6,20.6,7.5,32.3
			c13.8,166.7,15.4,232.6,5.6,243.3c-1.7,1.8-3.5,2.4-4.9,2.5C342.3,482.7,342.1,482.7,341.8,482.7z M283.9,174.7
			c-6.9,0-14.5,1.4-22.9,4.2c-2.5,0.8-4.9,1.6-7.4,2.4c-33.1,10.1-44.3,30.7-35.2,64.9c1.9,7.3,4.8,14.7,8.8,22.7
			c42.1,83.6,99.6,197.6,114.2,204.6c9.9-15.8-3.3-175.3-8.4-235.8c-0.9-10.8-3.2-20.8-6.9-29.6v0
			C316.7,185.6,303.1,174.7,283.9,174.7z"/>
	</g>
	<g class="st1">
		<path id="XMLID_31_" class="st2" d="M264,174c-0.4-15.2,1.9-28.2,4-37.8c0.4-2.1,0.5-4.4,0.1-7.2c-0.2-1.6-0.3-3.2-0.3-4.9
			c0.1-6.8,3.1-13.4,8.1-18.1c4.5-4.3,10-6.5,16.4-6.6c0.9-5.8,4.1-10.7,9.4-14.3c5.7-3.9,10.4-5,15.9-4.8c0.4-5.3,2.5-9.6,6.3-13.1
			c3.1-2.8,7.2-4.5,12.1-5.1c9.7-1.1,15.2,2.7,18.2,6.5c13.5-5.1,21.7,1.1,26.2,7.3c1.4,1.9,1.7,4.2,1.1,6.4
			c-0.7,2.2-2.4,4.1-4.6,4.9c-26.5,9.9-43.6,17.7-50.6,23.2c-27.2,16.2-42.5,36.8-47.1,63l-6.1-1.1c0,0.4,0,0.8,0,1.2L264,174z
			 M292.9,108.4c-4.2,0-7.8,1.4-10.8,4.2c-3.2,3.1-5.2,7.3-5.2,11.7c0,1.2,0.1,2.3,0.2,3.5c0.5,3.8,0.5,7.2-0.2,10.3
			c-1.2,5.7-2.5,12.6-3.2,20.4c7.4-22.6,23.1-40.8,47.5-55.3c7.2-5.7,23.9-13.5,50.5-23.5c-3.9-4.2-8.7-4.9-15.3-2
			c-3.2,1.4-6.9,0.3-8.8-2.6c-1.3-2-3.7-4.6-10.6-3.8c-2,0.2-4.9,0.9-7,2.8c-2.7,2.4-3.7,5.6-3.2,10.1l0.2,2.1l-3.2,3.5l-2.6-0.1
			c-6.9-0.7-9.9-0.1-14.4,3c-4.1,2.8-6,6.4-5.7,11.2l0.1,2.1l-3.3,3l-2.3-0.4C294.6,108.5,293.7,108.4,292.9,108.4z"/>
	</g>
	<g class="st1">
		<path id="XMLID_28_" class="st2" d="M234.7,189.1c-15.6-15.2-35.5-21.5-60.8-19.2c-7.9-0.3-23,2.7-45.4,8.9
			c-2.1,0.6-4.4,0.1-6.1-1.2c-1.7-1.3-2.7-3.3-2.7-5.5c0-9.1,5-15.5,14-18.1c0.3-4.2,2.4-9.3,9.4-13.2c3.6-2,7.4-2.9,11-2.5
			c3,0.3,7,1.6,10.5,5.4c3.6-2.6,7.3-4,12.8-4.2c5.3-0.2,9.8,1.5,13.3,4.8c4.3-2.8,9.1-3.9,14.2-3.3c5.8,0.8,11.2,3.9,14.7,8.5
			c0.8,1.1,1.6,2.3,2.2,3.5c1,1.9,2.1,3.4,3.4,4.5c6.1,5.5,14,13.2,21,23.5l-7.5,5.1c-0.2-0.2-0.3-0.5-0.5-0.7L234.7,189.1z
			 M184,160.3c16.1,0,30.3,3.7,42.6,11.1c-2.6-2.7-5.1-5-7.5-7.2c-2-1.8-3.8-4.1-5.3-7c-0.4-0.8-0.9-1.6-1.5-2.3
			c-2-2.7-5.2-4.5-8.6-5c-3.8-0.5-7.1,0.7-10.5,3.8l-1.5,1.4l-4.2-0.4l-1.3-1.7c-2.1-3.3-4.6-4.5-8.7-4.5c-4.3,0.1-6.4,1.1-10.6,4.8
			l-1.6,1.4l-4.6-0.6l-1.3-2.1c-2.2-3.9-4.7-4.6-6.4-4.8c-2.1-0.2-4.2,0.7-5.6,1.4c-4.5,2.5-4.9,5-4.8,6.9c0.2,3.2-2,6.1-5.2,6.8
			c-5.8,1.3-7.8,4-8.5,6.9c22.1-6,36.7-8.7,44.7-8.4C177.1,160.5,180.6,160.3,184,160.3z"/>
	</g>
	<g class="st1">
		<path id="XMLID_25_" class="st2" d="M246.5,180c-6.4-22.1-18.5-40.8-36.9-57.1c-2.6-2.3-4.5-4.9-5.5-7.6c-1-2.7-2.4-8.5,2.5-13.4
			c-6.9-5.5-9.9-9.8-9.6-14c0.1-1.3,0.5-3.3,2.4-5.2c-8.6-8.7-4.1-16.5-1.7-19.6c-4.8-11.9-5.6-22.8-2.2-30.6
			c2.4-5.5,7-9.5,13.2-11.6c7.4-1.4,13.7,0,18.8,3.7c9.3,6.8,12.3,19.3,13.2,26.1c3.9,0.8,7.1,3.2,8.7,6.6c1.4,2.9,1.7,6.5,0.8,10.6
			c2.2,0.5,3.6,1.6,4.5,2.7c2.8,3.4,2.8,8.7-0.2,17.4c4.9,1.1,8.2,4.5,9.3,9.9c0.6,2.9,0.4,6-0.6,9.4c-6.7,23.7-6.9,46-0.5,68
			l-7.7,2.2c0,0,0,0,0,0.1L246.5,180z M206.1,88.7c0.5,1,2.6,3.9,10.4,9.3l2.1,1.5l-0.3,5.5l-2.5,1.4c-4.6,2.2-3.9,4-3.3,5.7
			c0.5,1.4,1.6,2.8,3.1,4.1c16.6,14.8,28.4,31.3,35.9,50.4c-4-20.1-2.9-40.4,3.2-61.8c0.6-1.9,0.7-3.7,0.4-5.1
			c-0.3-1.7-0.7-3.6-5.8-3l-2.6,0.3l-3.5-4.3l1-2.8c3.6-8.6,3.8-12,3.7-13.2c-0.2,0-0.6,0.1-1.1,0.1c-2,0.4-4.1-0.3-5.4-1.8
			c-1.3-1.6-1.7-3.7-0.9-5.6c1.4-3.6,1.8-6.5,1-8.1c-0.2-0.4-0.8-1.6-3.7-2.5c-3.1-0.9-5.4-3.6-5.9-6.9c-1.3-9.2-4.8-16.5-9.6-20
			c-3.2-2.3-6.9-3-11.3-2.3c-3.2,1.1-5.7,3.3-7.1,6.5c-2.4,5.4-1.5,13.9,2.4,22.7c1.4,3.2,0.9,7-1.4,9.9c-1.4,1.7-3.4,4.3,2.6,9.2
			c1.7,1.4,2.6,3.5,2.4,5.7c-0.2,2.2-1.5,4.1-3.5,5.2C206.2,88.6,206.2,88.7,206.1,88.7z"/>
	</g>
</g>
<g id="XMLID_37_" class="st0">
	<g class="st1">
		<path id="XMLID_39_" class="st2" d="M223.6,393.1l-0.3-12.7c52.2-1.1,92.7-18.6,120.1-52.2c45.8-56,56.9-157.8,32.2-294.6
			C237.8,69.8,145.5,133.6,122.4,209c-15.4,50.2,0.5,103.9,45.8,155.3l-9.5,8.4c-48.4-54.9-65.2-112.8-48.4-167.5
			c24.8-81.1,118.4-146.6,263.6-184.4c3-0.8,6.3-0.3,9,1.4c2.7,1.7,4.5,4.4,5.1,7.5c25.7,141.2,13.7,247.2-34.6,306.3
			C323.4,372.8,279.7,392,223.6,393.1z"/>
	</g>
	<g class="st1">
		<path id="XMLID_38_" class="st2" d="M191.8,481.1c-15.7-128.4,13.9-233.2,90.4-320.4l9.6,8.4c-74,84.3-102.6,185.9-87.3,310.5
			L191.8,481.1z"/>
	</g>
</g>
<g id="XMLID_40_" class="st0">
	<g class="st1">
		<path id="XMLID_64_" class="st2" d="M250,479.1c-125.9,0-228.3-102.4-228.3-228.3C21.8,125,124.2,22.6,250,22.6
			S478.3,125,478.3,250.9C478.3,376.7,375.9,479.1,250,479.1z M250,35.1c-119,0-215.8,96.8-215.8,215.8S131.1,466.6,250,466.6
			c119,0,215.8-96.8,215.8-215.8S369,35.1,250,35.1z"/>
	</g>
	<g class="st1">
		<path id="XMLID_61_" class="st2" d="M244.6,223.2l0.8-7.1c3.9-34.6,27.7-58.1,68.8-67.9l9.8-2.3l-2.3,9.8
			c-10.1,43.7-33.7,66.3-69.9,67.3L244.6,223.2z M306.7,163.3c-26.6,8.7-42.5,24.3-47.6,46.6C282.3,206.6,297.9,191.3,306.7,163.3z"
			/>
	</g>
	<g class="st1">
		<rect id="XMLID_60_" x="243.8" y="142.6" class="st2" width="12.5" height="329.2"/>
	</g>
	<g class="st1">
		<path id="XMLID_57_" class="st2" d="M250.8,165.4l-5.5-7.5c-27.5-37.2-27.5-74.8,0-112l4.6-6.3l5.1,5.9
			c26.9,31.1,27.1,68.7,0.6,111.9L250.8,165.4z M250.6,60.2c-17.6,27.6-17.9,54.7-0.8,82.3C267,110.7,267.2,83.6,250.6,60.2z"/>
	</g>
	<g class="st1">
		<path id="XMLID_54_" class="st2" d="M255.5,223.2l-7.2-0.2c-36.2-1-59.8-23.6-69.9-67.3l-2.3-9.8l9.8,2.3
			c41.1,9.8,64.9,33.2,68.8,67.9L255.5,223.2z M193.4,163.3c8.8,28,24.5,43.4,47.6,46.6C235.9,187.6,219.9,171.9,193.4,163.3z"/>
	</g>
	<g class="st1">
		<path id="XMLID_51_" class="st2" d="M246.6,313.6l0.8-7.1c4.6-41.3,33-69.2,82.1-80.9l9.8-2.3l-2.3,9.8
			c-12.1,52.2-40.1,79.2-83.3,80.4L246.6,313.6z M322.1,240.5c-34.7,10.7-55.3,30.8-61.2,59.9C291.1,296.9,311.2,277.2,322.1,240.5z
			"/>
	</g>
	<g class="st1">
		<path id="XMLID_48_" class="st2" d="M256.7,313.6l-7.2-0.2c-43.1-1.2-71.1-28.2-83.3-80.4l-2.3-9.8l9.8,2.3
			c49.1,11.7,77.5,39.6,82.1,80.9L256.7,313.6z M181.2,240.5c10.9,36.7,31,56.4,61.2,59.9C236.4,271.3,215.9,251.2,181.2,240.5z"/>
	</g>
	<g class="st1">
		<path id="XMLID_45_" class="st2" d="M244.8,404.2l0.8-7.1c5.1-45.6,36.6-76.6,90.9-89.5l9.8-2.3l-2.3,9.8
			c-13.4,57.7-44.4,87.6-92,89L244.8,404.2z M329.2,322.4c-40.1,12-63.6,35-70.1,68.6C294,387.3,317,364.8,329.2,322.4z"/>
	</g>
	<g class="st1">
		<path id="XMLID_42_" class="st2" d="M254.6,404.2l-7.2-0.2c-47.7-1.3-78.6-31.2-92-89l-2.3-9.8l9.8,2.3
			c54.3,12.9,85.8,43.9,90.9,89.5L254.6,404.2z M170.2,322.4c12.2,42.4,35.3,64.9,70.1,68.6C233.8,357.4,210.3,334.4,170.2,322.4z"
			/>
	</g>
	<g class="st1">
		
			<rect id="XMLID_41_" x="28.7" y="244.6" transform="matrix(0.7071 0.7071 -0.7071 0.7071 250.6298 -103.333)" class="st2" width="442.7" height="12.5"/>
	</g>
</g>
<g id="XMLID_67_" class="st0">
	<g class="st1">
		<path id="XMLID_81_" class="st2" d="M250.7,479.7C122.9,479.7,19,375.8,19,248.1S122.9,16.4,250.7,16.4
			c127.7,0,231.6,103.9,231.6,231.7S378.4,479.7,250.7,479.7z M250.7,29.1c-120.7,0-219,98.2-219,219c0,120.7,98.2,219,219,219
			s219-98.2,219-219C469.6,127.3,371.4,29.1,250.7,29.1z"/>
	</g>
	<g class="st1">
		
			<rect id="XMLID_80_" x="26.1" y="241.7" transform="matrix(0.7071 0.7071 -0.7071 0.7071 248.831 -104.6037)" class="st2" width="449.2" height="12.7"/>
	</g>
	<g class="st1">
		<path id="XMLID_77_" class="st2" d="M319.4,372.3l-75-46.8v-78l73-38.1l73,38.1v89.8L319.4,372.3z M257,318.5l63.1,39.4l57.5-28.4
			v-74.2l-60.3-31.5L257,255.2V318.5z"/>
	</g>
	<g class="st1">
		<polygon id="XMLID_76_" class="st2" points="326.1,365.1 313.4,365.1 313.4,289.4 247.9,257.1 253.5,245.7 319.6,278.4 381,245.8 
			386.9,257 326.1,289.3 		"/>
	</g>
	<g class="st1">
		<path id="XMLID_73_" class="st2" d="M252.7,254.1l-75-46.8v-78l73-38.1l73,38.1V219L252.7,254.1z M190.4,200.2l63.1,39.4
			l57.6-28.4V137l-60.3-31.5L190.4,137V200.2z"/>
	</g>
	<g class="st1">
		<polygon id="XMLID_72_" class="st2" points="259.4,246.8 246.7,246.8 246.7,171.2 181.2,138.8 186.8,127.4 253,160.1 314.3,127.5 
			320.3,138.7 259.4,171 		"/>
	</g>
	<g class="st1">
		<path id="XMLID_69_" class="st2" d="M186.1,364.3l-75-46.8v-78l73-38.1l73,38.1v89.8L186.1,364.3z M123.7,310.4l63,39.4l57.6-28.4
			v-74.2L184,215.7l-60.3,31.5V310.4z"/>
	</g>
	<g class="st1">
		<polygon id="XMLID_68_" class="st2" points="192.8,357.1 180.1,357.1 180.1,281.4 114.6,249 120.2,237.7 186.3,270.3 247.7,237.7 
			253.7,249 192.8,281.3 		"/>
	</g>
</g>
<g id="XMLID_84_" class="st0">
	<g class="st1">
		<path id="XMLID_88_" class="st2" d="M447.7,406H52.8c-19.4,0-35.2-15.8-35.2-35.2V124.3c0-19.4,15.8-35.2,35.2-35.2h394.9
			c19.4,0,35.2,15.8,35.2,35.2v246.5C482.9,390.2,467.1,406,447.7,406z M52.8,101.6c-12.5,0-22.7,10.2-22.7,22.7v246.5
			c0,12.5,10.2,22.7,22.7,22.7h394.9c12.5,0,22.7-10.2,22.7-22.7V124.3c0-12.5-10.2-22.7-22.7-22.7H52.8z"/>
	</g>
	<g class="st1">
		<polygon id="XMLID_87_" class="st2" points="250.2,331.5 22.6,103 31.5,94.2 250.2,313.9 469,94.2 477.8,103 		"/>
	</g>
	<g class="st1">
		
			<rect id="XMLID_86_" x="294" y="315.9" transform="matrix(0.7071 0.7071 -0.7071 0.7071 344.7124 -187.8141)" class="st2" width="210.2" height="12.5"/>
	</g>
	<g class="st1">
		
			<rect id="XMLID_85_" x="95.1" y="217.1" transform="matrix(0.7071 0.7071 -0.7071 0.7071 257.5069 22.677)" class="st2" width="12.5" height="210.2"/>
	</g>
</g>
<g id="XMLID_91_" class="st0">
	<g class="st1">
		<path id="XMLID_97_" class="st2" d="M250.8,479.6c-32.8,0-65.7-2.6-98.5-7.8c-22.8-4.7-38.2-15.2-46.1-31.3
			c-5-10.2-6.2-22.5-3.4-34.6l60.8-265.1l176.8-0.1l58.2,265.8c2.7,12.2,1.3,24.5-3.8,34.6c-8.1,16.1-23.6,26.4-46.1,30.8
			C316.3,477,283.6,479.6,250.8,479.6z M176.9,157.5L119,409.6c-1.9,8.4-1.2,16.8,2.1,23.5c5.6,11.4,16.8,18.7,34.1,22.3
			c63.4,10,127.6,10,190.5,0c17.1-3.3,28.3-10.5,34.1-21.9c3.4-6.7,4.2-15,2.4-23.5L327,157.4L176.9,157.5z"/>
	</g>
	<g class="st1">
		<path id="XMLID_94_" class="st2" d="M136,109.5l0-8.3c0-23.3,12.3-45,34.6-61.1c21.5-15.5,49.9-24.1,80-24.1
			c63.2,0,114.6,38.2,114.6,85.2v8.4L136,109.5z M250.6,32.6c-26.6,0-51.6,7.5-70.2,20.9c-15,10.9-24.4,24.6-26.9,39.2l194.4,0
			C341.9,58.9,300.5,32.6,250.6,32.6z"/>
	</g>
	<g class="st1">
		
			<rect id="XMLID_93_" x="130" y="116.8" transform="matrix(0.4747 0.8801 -0.8801 0.4747 192.7312 -72.6969)" class="st2" width="54.5" height="16.7"/>
	</g>
	<g class="st1">
		
			<rect id="XMLID_92_" x="336.9" y="98.4" transform="matrix(0.9001 0.4357 -0.4357 0.9001 88.9731 -137.9305)" class="st2" width="16.7" height="53.2"/>
	</g>
</g>
<g id="XMLID_100_" class="st0">
	<path id="XMLID_101_" class="st3" d="M250.5,453.8L53.1,256.4c-23.8-23.8-36.7-55.7-35.6-87.6c0.1-2.2,0.2-4.5,0.4-6.7
		C23.4,99.4,74.9,48.3,137.6,43.4c43.6-3.5,86,15.1,113,48.8C276.2,60,314.8,41.7,356.7,43c68.2,2,123.9,56.8,126.9,124.9
		c0.1,2.2,0.1,4.4,0.1,6.6c-0.2,29.4-12.9,58.9-34.9,80.9L250.5,453.8z M148.1,57.3c-3.1,0-6.2,0.1-9.3,0.4
		C82.9,62.1,37.1,107.5,32.3,163.3c-0.2,2-0.3,4-0.4,6c-1,27.9,10.4,55.9,31.4,76.9l187.2,187.2l188.2-188.2
		c19.4-19.3,30.5-45.2,30.7-70.8c0-2,0-3.9-0.1-5.9c-2.7-60.6-52.3-109.4-113-111.1c-39.8-1-77.2,17.9-99.7,50.9l-5.9,8.7l-5.9-8.7
		C222.9,76.3,186.5,57.3,148.1,57.3z"/>
</g>
<g id="XMLID_109_" class="st0">
	<g class="st1">
		<path id="XMLID_108_" class="st2" d="M437.7,481.4c-4.9,0-8.9-4-8.9-8.9c0-98.4-80-178.4-178.4-178.4s-178.4,80-178.4,178.4
			c0,4.9-4,8.9-8.9,8.9s-8.9-4-8.9-8.9c0-108.2,88-196.3,196.3-196.3c108.2,0,196.2,88,196.2,196.3
			C446.6,477.4,442.6,481.4,437.7,481.4z"/>
	</g>
	<g id="XMLID_104_" class="st1">
		<path id="XMLID_105_" class="st2" d="M255.7,263.4c-68.7,0-124.5-55.9-124.5-124.5S187,14.4,255.7,14.4
			c68.7,0,124.5,55.9,124.5,124.5S324.3,263.4,255.7,263.4z M255.7,32.2C196.8,32.2,149,80,149,138.9s47.9,106.7,106.7,106.7
			c58.8,0,106.7-47.9,106.7-106.7S314.5,32.2,255.7,32.2z"/>
	</g>
</g>
<g id="XMLID_110_" class="st0">
	<g class="st1">
		<path id="XMLID_122_" class="st2" d="M24.8,377.4C24.7,377.4,24.7,377.4,24.8,377.4c-3.5,0-6.3-2.8-6.3-6.3
			c0.2-31.8,12.7-61.5,35.3-83.9c22.4-22.2,52.1-34.3,83.5-34.3c0.2,0,0.5,0,0.7,0c3.5,0,6.2,2.8,6.2,6.3c0,3.4-2.8,6.2-6.3,6.2
			c-0.1,0-0.4,0-0.7,0c-28.2,0-54.7,10.9-74.7,30.7c-20.2,20-31.4,46.6-31.6,75C31,374.6,28.2,377.4,24.8,377.4z"/>
	</g>
	<g class="st1">
		<path id="XMLID_121_" class="st2" d="M363.2,377.7c-3.5,0-6.3-2.8-6.3-6.3c0-58.6-47.7-106.4-106.4-106.4
			c-58.6,0-106.4,47.7-106.4,106.4c0,3.5-2.8,6.3-6.3,6.3c-3.5,0-6.3-2.8-6.3-6.3c0-65.5,53.3-118.9,118.9-118.9
			s118.9,53.3,118.9,118.9C369.5,374.9,366.7,377.7,363.2,377.7z"/>
	</g>
	<g class="st1">
		<path id="XMLID_120_" class="st2" d="M476.5,377.4c-3.4,0-6.2-2.8-6.3-6.2c-0.2-28.4-11.4-55.1-31.6-75
			c-20.2-20-47-31.2-75.4-30.7c0,0,0,0,0,0c-3.4,0-6.2-2.8-6.3-6.2c0-3.5,2.8-6.3,6.2-6.3c0.2,0,0.5,0,0.7,0
			c31.5,0,61.1,12.2,83.6,34.3c22.6,22.3,35.1,52.1,35.3,83.9C482.8,374.6,480,377.4,476.5,377.4
			C476.5,377.4,476.5,377.4,476.5,377.4z"/>
	</g>
	<g class="st1">
		<path id="XMLID_117_" class="st2" d="M250.6,223.1c-35.6,0-64.6-29-64.6-64.6s29-64.6,64.6-64.6c35.6,0,64.6,29,64.6,64.6
			S286.2,223.1,250.6,223.1z M250.6,106.4c-28.7,0-52,23.4-52,52.1s23.3,52.1,52,52.1s52.1-23.4,52.1-52.1S279.3,106.4,250.6,106.4z
			"/>
	</g>
	<g class="st1">
		<path id="XMLID_114_" class="st2" d="M407.4,242.5c-27.8,0-50.4-22.6-50.4-50.4s22.6-50.4,50.4-50.4c27.8,0,50.4,22.6,50.4,50.4
			S435.1,242.5,407.4,242.5z M407.4,154.3c-20.9,0-37.9,17-37.9,37.9s17,37.9,37.9,37.9c20.9,0,37.9-17,37.9-37.9
			S428.2,154.3,407.4,154.3z"/>
	</g>
	<g class="st1">
		<path id="XMLID_111_" class="st2" d="M93.9,242.5c-27.8,0-50.4-22.6-50.4-50.4s22.6-50.4,50.4-50.4c27.8,0,50.4,22.6,50.4,50.4
			S121.7,242.5,93.9,242.5z M93.9,154.3c-20.9,0-37.9,17-37.9,37.9S73,230,93.9,230c20.9,0,37.9-17,37.9-37.9
			S114.8,154.3,93.9,154.3z"/>
	</g>
</g>
<g id="XMLID_123_" class="st0">
	<g id="XMLID_143_" class="st1">
		<path id="XMLID_130_" class="st2" d="M363.5,486.5H135.9c-23.2,0-42.2-18.5-43.3-42.1L77.9,128.3H427l-15.9,312
			C409.8,466.2,388.9,486.5,363.5,486.5z M94.8,144.5l14,299.2c0.7,15,12.6,26.7,27.1,26.7h227.6c16.8,0,30.6-13.5,31.5-30.8
			l15-295.1H94.8z"/>
	</g>
	<g id="XMLID_139_" class="st1">
		<path id="XMLID_127_" class="st2" d="M417.6,144.5H85.3c-14.1,0-25.7-11.5-25.7-25.7c0-24.2,19.7-43.9,43.9-43.9H395
			c25.4,0,46,20.6,46,46C441,134,430.5,144.5,417.6,144.5z M103.5,91.1c-15.3,0-27.8,12.4-27.8,27.8c0,5.2,4.3,9.5,9.5,9.5h332.3
			c4,0,7.3-3.3,7.3-7.3c0-16.6-13.4-30-29.9-30H103.5z"/>
	</g>
	<g id="XMLID_137_" class="st1">
		<path id="XMLID_126_" class="st2" d="M202.9,433.9c-4.2,0-7.7-3.2-8-7.4l-19.4-240.9c-0.4-4.4,3-8.3,7.4-8.7
			c4.5-0.2,8.3,3,8.7,7.4l19.4,240.9c0.4,4.4-3,8.3-7.4,8.7C203.3,433.9,203.1,433.9,202.9,433.9z"/>
	</g>
	<g id="XMLID_135_" class="st1">
		<path id="XMLID_125_" class="st2" d="M307.5,433.9c-0.2,0-0.4,0-0.7,0c-4.5-0.4-7.8-4.3-7.4-8.7l19.4-240.9
			c0.4-4.4,4.3-7.7,8.7-7.4c4.5,0.4,7.8,4.3,7.4,8.7l-19.4,240.9C315.2,430.7,311.6,433.9,307.5,433.9z"/>
	</g>
	<g id="XMLID_133_" class="st1">
		<path id="XMLID_124_" class="st2" d="M329,68.9c-4.5,0-8.1-3.6-8.1-8.1V50.4c0-11.4-9.3-20.8-20.8-20.8h-99.7
			c-11.5,0-20.8,9.3-20.8,20.8v10.4c0,4.5-3.6,8.1-8.1,8.1c-4.5,0-8.1-3.6-8.1-8.1V50.4c0-20.3,16.6-36.9,36.9-36.9h99.7
			c20.4,0,36.9,16.6,36.9,36.9v10.4C337,65.3,333.4,68.9,329,68.9z"/>
	</g>
</g>
<g id="XMLID_134_" class="st0">
	<g id="XMLID_149_" class="st1">
		<path id="XMLID_141_" class="st2" d="M481.7,237.1H265.5V21h7.2c115.2,0,209,93.8,209,209V237.1z M279.9,222.8h187.3
			c-3.7-101.6-85.7-183.6-187.3-187.4V222.8z"/>
	</g>
	<g id="XMLID_145_" class="st1">
		<path id="XMLID_136_" class="st2" d="M227.7,479c-115.2,0-209-93.8-209-209c0-115.2,93.8-209,209-209h7.2v201.8h201.8v7.2
			C436.7,385.3,342.9,479,227.7,479z M220.5,75.5C116.5,79.3,33,165.1,33,270c0,107.3,87.3,194.7,194.6,194.7
			c104.9,0,190.7-83.5,194.5-187.5H220.5V75.5z"/>
	</g>
</g>
<g id="XMLID_146_" class="st0">
	<g id="XMLID_156_" class="st1">
		<path id="XMLID_150_" class="st2" d="M172.6,330.7c-83.9,0-152.1-68.3-152.1-152.1c0-83.9,68.3-152.1,152.1-152.1
			c83.9,0,152.1,68.2,152.1,152.1C324.7,262.5,256.4,330.7,172.6,330.7z M172.6,45.5c-73.4,0-133.1,59.7-133.1,133.1
			c0,73.4,59.7,133.1,133.1,133.1c73.4,0,133.1-59.7,133.1-133.1C305.6,105.2,245.9,45.5,172.6,45.5z"/>
	</g>
	<g id="XMLID_154_" class="st1">
		
			<rect id="XMLID_148_" x="240.1" y="360.6" transform="matrix(0.7071 0.7071 -0.7071 0.7071 372.1113 -158.1039)" class="st2" width="273.5" height="19.1"/>
	</g>
</g>
<g id="XMLID_163_" class="st0">
	<g id="XMLID_147_" class="st1">
		<g id="XMLID_172_">
			<path id="XMLID_160_" class="st4" d="M302.2,346.2h-22c-1.6,0-3.1-1-3.8-2.5l-6.7-14.9c-0.5-1.1-0.8-2.4-0.7-3.7
				c1.1-26.9-0.1-42-3.6-45.1c-0.2-0.1-0.3-0.2-0.5-0.2c-29.1,12.9-65.6,12.8-111.6-0.4c-3.9,8.4-6.7,19.8-9.2,36.6
				c-0.1,0.4,0,0.8,0.3,1.1l7.8,11c0.8,1.2,1.3,2.6,1.3,4v13.9l-3.5,0.2h-21.1c-1.6,0-3.1-0.9-3.9-2.4l-7.6-15
				c-0.6-1.2-0.9-2.5-0.9-3.9v-35.2c0-3.2,0.6-6.3,1.9-9.3c5.2-12.5,5.5-24.6,1-36.8c-1.3-3.5-2.2-7-2.5-10.4
				c-3.9-37.8,5.5-59.4,28.1-64.2c10-1.3,21-0.6,34,2c11,2.2,23,3.3,35.5,3.3H329c1.5-10.7,4.8-16.7,9.9-18.2
				c4.8-1.4,10.2,1.5,15.9,8.5l4.6,4.6c0.9,0.9,1.4,2.1,1.4,3.4v5.2l5.7,0.1c1.5,0,3,0.8,3.9,2l29.2,38.2c2.3,3,1.9,7.1-0.9,9.5
				l-7.8,7.1c-2.1,1.9-4.8,2.9-7.6,2.9c0,0-0.1,0-0.1,0l-24.5-0.3c-2.3,0-4.4-1-5.8-2.8l-4.8-5.7c-7.7,6.6-14.9,15.3-22,25.7
				c-5.2,10.8-14.2,20.6-26.6,28.8c-2.1,1.4-3.3,3.6-3.3,6l-0.5,28.8c0,0.4,0.1,0.8,0.4,1.2l8.4,11.3c0.7,0.9,1,2,1,3.2v12.3
				L302.2,346.2z M281.8,339.5h17.1v-5.2l-8.2-11c-1.1-1.5-1.7-3.4-1.7-5.3l0.5-28.8c0.1-4.6,2.5-8.9,6.4-11.4
				c11.3-7.5,19.6-16.4,24.5-26.5c7.7-11.4,15.1-20.2,22.8-27.3c1.4-1.3,3.3-2,5.2-1.8c1.9,0.1,3.7,1,4.9,2.5l4.8,5.7
				c0.2,0.2,0.5,0.4,0.8,0.4l24.5,0.3c1.2,0,2.3-0.4,3.1-1.2l7.8-7.1l-28.7-38.1l-11.4-0.2l-0.1-11l-4.3-4.3c-4.6-5.6-7.6-7-9-6.6
				c-0.7,0.2-4.1,1.9-5.6,15.5l-0.3,3H214.4c-13,0-25.4-1.2-36.8-3.4c-12.3-2.4-22.6-3.1-31.6-2c-18.6,4-26.1,22.6-22.5,56.9
				c0.3,2.8,1,5.7,2.1,8.7c5.1,13.7,4.8,27.8-1.1,41.8c-0.9,2.1-1.4,4.4-1.4,6.7V325c0,0.3,0.1,0.6,0.2,0.8l6.9,13.7h16.5v-7.4
				l-7.9-11.1c-1.2-1.7-1.8-3.9-1.4-6c2.7-18.1,5.8-30.3,10.2-39.4c1.2-2.5,4-3.7,6.7-3c45,13,80.4,13.2,108.2,0.7l0.8-0.2
				c2.3-0.4,4.5,0.2,6.3,1.7c5.5,4.8,7.2,18.9,5.9,50.4c0,0.3,0,0.5,0.1,0.7L281.8,339.5z"/>
		</g>
		<g id="XMLID_170_">
			
				<rect id="XMLID_159_" x="328.4" y="181.8" transform="matrix(0.6261 0.7797 -0.7797 0.6261 270.6833 -194.2914)" class="st4" width="19" height="6.7"/>
		</g>
		<g id="XMLID_168_">
			<path id="XMLID_158_" class="st4" d="M105.2,270.7l-6.3-2.2c3-8.3,4.3-19.4,4.1-33.8c-1.1-27.9,8.7-48.2,29.2-60.1l3.4,5.8
				c-18.4,10.7-26.9,28.4-25.9,54.1C109.8,249.8,108.4,261.6,105.2,270.7z"/>
		</g>
		<g id="XMLID_166_">
			<path id="XMLID_157_" class="st4" d="M150.1,276.3c-1.9-30.2,6.5-65,25.1-103.4l6,2.9c-18.1,37.3-26.3,71-24.5,100L150.1,276.3z"
				/>
		</g>
		<g id="XMLID_164_">
			<path id="XMLID_155_" class="st4" d="M267.4,276.8l-6.7-0.5c2.6-35.6,9.3-69.2,20-100l6.3,2.2
				C276.5,208.8,269.9,241.8,267.4,276.8z"/>
		</g>
	</g>
	<g id="XMLID_153_" class="st1">
		<g id="XMLID_189_">
			<path id="XMLID_188_" class="st2" d="M250,479.7c-127.7,0-231.7-103.9-231.7-231.7S122.3,16.4,250,16.4
				c127.7,0,231.6,103.9,231.6,231.7S377.7,479.7,250,479.7z M250,29.1c-120.7,0-219,98.2-219,219c0,120.7,98.2,219,219,219
				s219-98.2,219-219C469,127.3,370.7,29.1,250,29.1z"/>
		</g>
		<g id="XMLID_187_">
			
				<rect id="XMLID_186_" x="25.4" y="241.7" transform="matrix(0.7071 0.7071 -0.7071 0.7071 248.6324 -104.1243)" class="st2" width="449.2" height="12.7"/>
		</g>
	</g>
</g>
<g id="XMLID_165_" class="st0">
	<g id="XMLID_182_" class="st1">
		<path id="XMLID_173_" class="st2" d="M151.2,379.3H112c-2.5,0-4.9-1.5-6-3.7l-10.7-22.2c-0.6-1.2-0.9-2.6-0.9-4l0.6-53.1
			c-46.4-53-43.6-95.2,9.6-145.5c30.3-25.5,72.3-34.7,125.1-27.8c4.4,0.6,8.8,1.1,13.2,1.4c71.9,5.6,128.5,21,173.3,47.2l-5.4,9.3
			c-43.3-25.4-98.4-40.4-168.6-45.8c-4.6-0.4-9.2-0.9-13.8-1.5c-31.9-4.2-59.4-2.2-82.4,5.9c50.1,47.9,53.7,108.8,10.2,176.7
			c-13.7,18.5-13.8,36.1-0.4,54.2l2,2.8l-3.1,6L151.2,379.3z M114.6,368.5h27.1c-10.7-19.3-8.9-39,5.6-58.4
			c41.1-64.2,36.9-121.6-12.4-166.1c-8.4,4-16.2,8.9-23.2,14.8c-49.1,46.5-51.3,82-8,131c1.4,1.5,2.1,3.5,2.1,5.6l-0.6,54.1
			L114.6,368.5z"/>
	</g>
	<g id="XMLID_180_" class="st1">
		<path id="XMLID_171_" class="st2" d="M324.1,379.3h-3.3l-2.3-3.5l-4.4-9.1c-4.5-9.3-7.4-19.2-8.6-29.5
			c-1.5-12.7-3.7-23.1-6.8-31.8c-41.4,6.3-85.1,1.4-133.6-14.9l3.4-10.2c48.4,16.2,91.9,20.7,132.7,13.7l4.3-0.7l1.6,4
			c4.2,10.3,7.1,22.9,9,38.5c1.1,9.1,3.7,17.9,7.6,26.1l3.1,6.5l26.7,0c-9.4-31.4-3.9-55.7,16.3-72.5c2.3-1.9,5.3-2.7,8.4-2.3
			c32.1,5,62.3,4.4,89.7-1.8l6.7-20.6c-20.3-12.6-32.9-35.1-38.5-68.6c-0.4-2.3,0-4.8,1.1-7c5.6-10.9,7.2-21.6,4.9-32.5
			c-23.7,10.5-30.9,27.9-23.5,55.5l-10.4,2.8c-9.4-34.8,2.6-58.5,35.7-70.6l5.2-1.9l1.7,5.3c5.1,15.4,3.7,31-4.1,46.3
			c5.2,31.6,16.8,52,35.4,62.6c3.1,1.8,4.5,5.4,3.4,8.8l-8.2,25.3c-0.7,2.2-2.6,3.9-4.9,4.4c-29.3,7-61.6,7.9-96,2.5
			c-18,15-21.5,37.1-10.6,67.6l0.9,2.5l-3.1,4.8L324.1,379.3z"/>
	</g>
	<g id="XMLID_178_" class="st1">
		<path id="XMLID_169_" class="st2" d="M34.1,207.3c-4.7,0-9-1.3-12.1-3.7c-7.1-5.6-8.7-17.6-7.7-26.9c1.2-12.1,6.3-21.5,13.6-25.2
			c16.5-8.3,43.6-6,66.8,17.9l-7.7,7.5c-19.4-19.9-41.2-22.3-54.2-15.8c-3.8,1.9-6.9,8.6-7.7,16.6c-0.9,8.8,1.2,15.5,3.7,17.4
			c2.1,1.6,6.3,1.9,10.6,0.7c5.4-1.5,9.7-5,11.1-8.9l10.1,3.7c-2.6,7.2-9.5,13-18.3,15.5C39.4,206.9,36.7,207.3,34.1,207.3z"/>
	</g>
	<g id="XMLID_176_" class="st1">
		<path id="XMLID_167_" class="st2" d="M296.8,300.1c-7.9-65.4-0.6-118,22.2-160.8l9.5,5.1c-21.7,40.8-28.6,91.4-21,154.5
			L296.8,300.1z"/>
	</g>
</g>
<g id="XMLID_177_" class="st0">
	<g id="XMLID_204_" class="st1">
		<path id="XMLID_193_" class="st2" d="M406.7,299.5c-16.7-11.8-26.7-31.2-27.6-53.4c-0.8-19.6,5.8-38.2,16.8-47.4l5.8,7
			c-8.8,7.3-14.2,23.4-13.6,40c0.8,19.3,9.5,36.2,23.8,46.3L406.7,299.5z"/>
	</g>
	<g id="XMLID_202_" class="st1">
		<path id="XMLID_192_" class="st2" d="M90.1,307c-25.5-24.4-17.4-45.8-6.1-59.4l7,5.8c-13.2,15.9-11.5,30.8,5.3,47L90.1,307z"/>
	</g>
	<g id="XMLID_200_" class="st1">
		<path id="XMLID_185_" class="st2" d="M287.6,348.4c-8,0-16.8-1.7-26.2-5l-7.3-2.6l5.8-5.1c5.3-4.7,11.8-8.2,17.5-11.3
			c4.6-2.5,9.4-5,10.9-7.1l7.3,5.4c-2.7,3.7-7.9,6.4-13.9,9.7c-2.8,1.5-5.8,3.1-8.7,4.9c23.7,5.7,41.2-2,53.1-23.5l8,4.4
			C323,338.4,307.4,348.4,287.6,348.4z"/>
	</g>
	<g id="XMLID_198_" class="st1">
		<path id="XMLID_184_" class="st2" d="M215.9,208.7c-5.4-5.5-17.1-8.1-34.8-7.8c0,0-0.1,0-0.1,0c-4.1,0-6.3-2.6-6.6-5.2
			c-1-7.6,12.9-15.8,37.1-21.9c4.6-1.2,9.1-3,13.2-5.4c9.9-5.8,18-12.1,25-19.4c2.5-2.6,5.8-4.1,9.3-4.2c14.3-0.4,27.4,13,42.1,41.9
			l-8.1,4.1c-12.5-24.8-23.9-37-33.7-37c-1,0-2,0.5-2.9,1.4c-7.5,7.9-16.4,14.8-27,21c-4.9,2.9-10.1,5-15.6,6.4
			c-12.9,3.2-20.8,6.6-25.4,9.2c16.4,0.5,27.6,4,34,10.5L215.9,208.7z"/>
	</g>
	<g id="XMLID_194_" class="st1">
		<path id="XMLID_179_" class="st2" d="M29.5,355.3l-2.6-1.2c-1.4-0.9-2.4-2.4-2.5-4c-2.1-23.2,0.1-43.6,6.5-60.8
			c0.2-0.7,0.1-1.5-0.4-2.2c-12.9-19.9-18.9-41.1-17.8-63.1l0.1-2l1.8-1.8c1.1-1,2.6-1.4,4.1-1.2c21,2.6,39.1,9.5,55.4,21.2
			c5.7,4.1,12.2,6.2,18.8,6.2c0.1,0,0.1,0,0.2,0c22.3-0.2,43.9-5.8,66-17.1c45.6-26,85.4-40.2,121.7-43.3
			c49.8-7.8,167.2,22.6,180.4,26.1l0.2,0.4l0.1-0.4c13,4.2,21.3,10.2,24.5,17.9c2.5,6,2,12.7-1.5,20c-3.1,6.2-8,11.8-14.2,16.2
			c-5.2,3.6-12,8.2-20.2,13.6c-10.6,7-22.5,13.4-34.6,18.7c-49,21.5-105.7,25.4-154.8,26.4c-25.5,0.5-50.3-2.7-73.5-9.7
			c-32.9-10-58.2-13.9-77.2-11.9c-10.3,1.1-19.8,6.1-26.7,14.3c-14.2,16.8-31.5,29.2-51.5,36.9L29.5,355.3z M21.6,228.6
			c-0.1,18.8,5.4,36.3,16.5,53.5c2,3.1,2.5,7,1.2,10.3c-5.4,14.6-7.6,32-6.3,51.6c16.5-7.2,31-18.1,43.1-32.3
			c8.4-10,20.1-16.2,32.8-17.5c20.2-2.1,46.7,1.9,80.8,12.2c22.3,6.7,46,9.9,70.7,9.4c48.1-1,103.8-4.8,151.3-25.7
			c11.6-5.1,23.1-11.3,33.2-18c8.1-5.3,14.9-9.8,20-13.4c5-3.5,8.9-8,11.3-12.8c2.4-4.9,2.8-8.9,1.3-12.4c-2.1-5-8.6-9.4-18.8-12.7
			c-6-1.6-128.1-33.5-177-25.8c-34.7,3-74.5,17.2-118.4,42.3c-23.6,12.1-46.6,18-70.3,18.2c-0.1,0-0.2,0-0.2,0
			c-8.5,0-16.8-2.7-24.1-7.9C54.8,237.6,39.3,231.4,21.6,228.6z"/>
	</g>
</g>
<g id="XMLID_195_" class="st0">
	<g id="XMLID_223_" class="st1">
		<path id="XMLID_206_" class="st2" d="M250.6,376.9c-60.5,0-109.8-49.2-109.8-109.8V125.7C140.8,65.2,190.1,16,250.6,16
			s109.8,49.2,109.8,109.7v141.4C360.4,327.7,311.1,376.9,250.6,376.9z M250.6,33.4c-51,0-92.4,41.4-92.4,92.4v141.4
			c0,50.9,41.5,92.4,92.4,92.4s92.4-41.5,92.4-92.4V125.7C343,74.8,301.6,33.4,250.6,33.4z"/>
	</g>
	<g id="XMLID_221_" class="st1">
		<path id="XMLID_205_" class="st2" d="M250,430.4c-43.2,0-83.9-16.4-114.4-46.1c-30.6-29.8-47.5-69.5-47.5-111.7v-76.2h32.6
			c4.8,0,8.7,3.9,8.7,8.7c0,4.8-3.9,8.7-8.7,8.7h-15.2v58.8c0,37.5,15,72.7,42.3,99.2C175,398.4,211.4,413,250,413
			c79.7,0,144.5-63,144.5-140.4v-58.8h-13.3c-4.8,0-8.7-3.9-8.7-8.7c0-4.8,3.9-8.7,8.7-8.7h30.7v76.2
			C411.9,359.6,339.3,430.4,250,430.4z"/>
	</g>
	<g id="XMLID_219_" class="st1">
		<path id="XMLID_203_" class="st2" d="M351.7,484H149.5c-4.8,0-8.7-3.9-8.7-8.7s3.9-8.7,8.7-8.7h202.2c4.8,0,8.7,3.9,8.7,8.7
			S356.5,484,351.7,484z"/>
	</g>
	<g id="XMLID_217_" class="st1">
		<rect id="XMLID_201_" x="241.3" y="421.7" class="st2" width="17.4" height="53.6"/>
	</g>
	<g id="XMLID_215_" class="st1">
		<path id="XMLID_199_" class="st2" d="M297.8,151.2h-95.3c-4.8,0-8.7-3.9-8.7-8.7s3.9-8.7,8.7-8.7h95.3c4.8,0,8.7,3.9,8.7,8.7
			S302.6,151.2,297.8,151.2z"/>
	</g>
	<g id="XMLID_213_" class="st1">
		<path id="XMLID_197_" class="st2" d="M297.8,205.2h-95.3c-4.8,0-8.7-3.9-8.7-8.7s3.9-8.7,8.7-8.7h95.3c4.8,0,8.7,3.9,8.7,8.7
			S302.6,205.2,297.8,205.2z"/>
	</g>
	<g id="XMLID_211_" class="st1">
		<path id="XMLID_196_" class="st2" d="M298.3,255.7H203c-4.8,0-8.7-3.9-8.7-8.7c0-4.8,3.9-8.7,8.7-8.7h95.3c4.8,0,8.7,3.9,8.7,8.7
			C306.9,251.8,303.1,255.7,298.3,255.7z"/>
	</g>
</g>
<g id="XMLID_209_" class="st0">
	<g id="XMLID_236_" class="st1">
		<path id="XMLID_222_" class="st2" d="M250,364.9c-77.6,0-155.2-35.5-232.3-106.6c-2.7-2.5-4.2-6-4.2-9.7c0-3.7,1.6-7.2,4.3-9.6
			c154.1-138.6,310.3-138.6,464.4,0l0,0c2.7,2.4,4.3,6,4.3,9.6c0,3.7-1.5,7.2-4.2,9.7C405.2,329.4,327.6,364.9,250,364.9z
			 M250,145.8c-74.5,0-148.9,34-224.4,101.9c-0.4,0.3-0.4,0.8-0.4,1c0,0.2,0.1,0.7,0.4,1c151,139.3,297.8,139.3,448.9,0
			c0.4-0.4,0.4-0.8,0.4-1c0-0.2-0.1-0.7-0.5-1C398.9,179.7,324.5,145.8,250,145.8z"/>
	</g>
	<g id="XMLID_232_" class="st1">
		<path id="XMLID_216_" class="st2" d="M250,365.2c-63.5,0-115.2-51.7-115.2-115.2c0-63.5,51.7-115.2,115.2-115.2
			c63.5,0,115.2,51.7,115.2,115.2C365.2,313.5,313.5,365.2,250,365.2z M250,146.5c-57.1,0-103.5,46.4-103.5,103.5
			c0,57.1,46.4,103.5,103.5,103.5c57.1,0,103.5-46.5,103.5-103.5C353.5,192.9,307.1,146.5,250,146.5z"/>
	</g>
	<g id="XMLID_230_" class="st1">
		<path id="XMLID_231_" class="st2" d="M305.1,250c0,30.4-24.7,55.1-55.1,55.1c-30.4,0-55.1-24.7-55.1-55.1
			c0-30.4,24.7-55.1,55.1-55.1C280.4,194.9,305.1,219.6,305.1,250"/>
	</g>
	<g id="XMLID_226_" class="st1">
		<path id="XMLID_210_" class="st2" d="M250,310.9c-33.6,0-60.9-27.3-60.9-60.9s27.3-60.9,60.9-60.9c33.6,0,60.9,27.3,60.9,60.9
			S283.6,310.9,250,310.9z M250,200.7c-27.2,0-49.3,22.1-49.3,49.3c0,27.2,22.1,49.3,49.3,49.3c27.2,0,49.3-22.1,49.3-49.3
			C299.3,222.8,277.2,200.7,250,200.7z"/>
	</g>
</g>
<g id="XMLID_242_" class="st0">
	<g id="XMLID_257_" class="st1">
		<path id="XMLID_241_" class="st2" d="M395.5,403c-1.5,0-3-0.6-4.1-1.7L100.4,108c-2.3-2.3-2.3-6,0-8.3c2.3-2.3,6-2.3,8.2,0
			L399.6,393c2.3,2.3,2.3,6,0,8.3C398.5,402.4,397,403,395.5,403z"/>
	</g>
	<g id="XMLID_253_" class="st1">
		<path id="XMLID_238_" class="st2" d="M250,366.3c-77.6,0-155.2-35.8-232.3-107.5c-2.7-2.5-4.2-6-4.2-9.7s1.6-7.2,4.3-9.7
			c154.1-139.7,310.3-139.7,464.4,0l0,0c2.7,2.5,4.3,6,4.3,9.7s-1.5,7.2-4.2,9.7C405.2,330.5,327.6,366.3,250,366.3z M250,145.4
			c-74.5,0-148.9,34.2-224.4,102.7c-0.4,0.4-0.4,0.8-0.4,1.1c0,0.2,0.1,0.7,0.4,1.1c151,140.4,297.8,140.4,448.9,0
			c0.4-0.4,0.4-0.8,0.4-1.1c0-0.2-0.1-0.7-0.5-1.1C398.9,179.7,324.5,145.4,250,145.4z"/>
	</g>
	<g id="XMLID_249_" class="st1">
		<path id="XMLID_234_" class="st2" d="M250,366.5c-63.5,0-115.2-52.1-115.2-116.1c0-64,51.7-116.1,115.2-116.1
			c63.5,0,115.2,52.1,115.2,116.1C365.2,314.5,313.5,366.5,250,366.5z M250,146.1c-57.1,0-103.5,46.8-103.5,104.3
			c0,57.5,46.4,104.4,103.5,104.4c57.1,0,103.5-46.8,103.5-104.4C353.5,192.9,307.1,146.1,250,146.1z"/>
	</g>
	<g id="XMLID_247_" class="st1">
		<path id="XMLID_227_" class="st2" d="M305.1,250.5c0,30.7-24.7,55.5-55.1,55.5c-30.4,0-55.1-24.9-55.1-55.5S219.6,195,250,195
			C280.4,195,305.1,219.8,305.1,250.5"/>
	</g>
	<g id="XMLID_243_" class="st1">
		<path id="XMLID_228_" class="st2" d="M250,311.8c-33.6,0-60.9-27.5-60.9-61.4s27.3-61.4,60.9-61.4c33.6,0,60.9,27.5,60.9,61.4
			S283.6,311.8,250,311.8z M250,200.8c-27.2,0-49.3,22.3-49.3,49.6c0,27.4,22.1,49.6,49.3,49.6c27.2,0,49.3-22.3,49.3-49.6
			C299.3,223.1,277.2,200.8,250,200.8z"/>
	</g>
</g>
<g id="XMLID_250_" class="st0">
	<path id="XMLID_245_" class="st3" d="M120.8,474c-4.9,0-9.7-1.5-13.9-4.5c-7.4-5.3-11-14.2-9.5-23.1l21.9-130.5
		c0.2-1.3-0.2-2.6-1.1-3.5l-95.1-92.1c-6.5-6.3-8.9-15.6-6.1-24.3c2.8-8.7,10.1-14.9,19.1-16.2l130.8-19.5c1.3-0.2,2.4-1,3-2.2
		l58.1-118.8c4-8.2,12.1-13.3,21.2-13.3c0,0,0.1,0,0.1,0c9.1,0,17.2,5,21.2,13.2l58.9,118.4c0.6,1.2,1.7,2,3,2.2l130.9,18.6
		c9,1.3,16.4,7.4,19.2,16.1c2.8,8.6,0.6,17.9-5.9,24.3l-94.4,92.7c-0.9,0.9-1.4,2.2-1.1,3.5l22.8,130.3c1.6,8.9-2,17.8-9.3,23.2
		c-7.4,5.4-16.9,6.1-25,1.9l-117.3-61.2c-1.2-0.6-2.5-0.6-3.7,0L132,471.2C128.4,473,124.6,474,120.8,474z M249.5,45.8
		c-0.7,0.1-2.6,0.3-3.6,2.2l-58.2,118.8c-3.4,7-10.1,11.9-17.8,13L39.1,199.4c-2.1,0.3-2.9,1.8-3.2,2.7c-0.3,0.9-0.5,2.6,1,4.1
		l95,92c5.6,5.4,8.2,13.2,6.9,20.9l-21.9,130.5c-0.4,2.1,0.9,3.3,1.6,3.9c0.8,0.5,2.3,1.3,4.2,0.3l116.9-62c6.9-3.7,15.1-3.7,22-0.1
		L379,452.9c1.9,1,3.4,0.2,4.2-0.3c0.7-0.6,1.9-1.8,1.6-3.9l-22.8-130.3c-1.3-7.7,1.2-15.6,6.8-21l94.4-92.6c1.5-1.5,1.3-3.2,1-4.1
		c-0.3-0.9-1.1-2.4-3.2-2.7l-131-18.6c-7.7-1.1-14.4-5.9-17.9-12.9L253,48.1C252.1,46.1,250.4,45.8,249.5,45.8z"/>
</g>
<g id="XMLID_264_">
	<g id="XMLID_281_">
		<path id="XMLID_263_" class="st2" d="M128.4,249.5c0,29.8-24.2,54-54,54c-29.8,0-54-24.2-54-54c0-29.8,24.2-54,54-54
			C104.2,195.5,128.4,219.6,128.4,249.5"/>
	</g>
	<g id="XMLID_277_">
		<path id="XMLID_259_" class="st2" d="M74.4,313.2c-35.1,0-63.8-28.6-63.8-63.8s28.6-63.8,63.8-63.8c35.2,0,63.8,28.6,63.8,63.8
			S109.5,313.2,74.4,313.2z M74.4,205.2c-24.4,0-44.2,19.8-44.2,44.2s19.8,44.2,44.2,44.2c24.4,0,44.2-19.8,44.2-44.2
			S98.8,205.2,74.4,205.2z"/>
	</g>
	<g id="XMLID_275_">
		<path id="XMLID_262_" class="st2" d="M304,249.5c0,29.8-24.2,54-54,54c-29.8,0-54-24.2-54-54c0-29.8,24.2-54,54-54
			C279.8,195.5,304,219.6,304,249.5"/>
	</g>
	<g id="XMLID_271_">
		<path id="XMLID_255_" class="st2" d="M250,313.2c-35.1,0-63.8-28.6-63.8-63.8s28.6-63.8,63.8-63.8c35.2,0,63.8,28.6,63.8,63.8
			S285.2,313.2,250,313.2z M250,205.2c-24.4,0-44.2,19.8-44.2,44.2s19.8,44.2,44.2,44.2c24.4,0,44.2-19.8,44.2-44.2
			S274.4,205.2,250,205.2z"/>
	</g>
	<g id="XMLID_269_">
		<path id="XMLID_244_" class="st2" d="M479.6,249.5c0,29.8-24.2,54-54,54c-29.8,0-54-24.2-54-54c0-29.8,24.2-54,54-54
			C455.4,195.5,479.6,219.6,479.6,249.5"/>
	</g>
	<g id="XMLID_265_">
		<path id="XMLID_251_" class="st2" d="M425.6,313.2c-35.1,0-63.8-28.6-63.8-63.8s28.6-63.8,63.8-63.8c35.2,0,63.8,28.6,63.8,63.8
			S460.8,313.2,425.6,313.2z M425.6,205.2c-24.4,0-44.2,19.8-44.2,44.2s19.8,44.2,44.2,44.2c24.4,0,44.2-19.8,44.2-44.2
			S450,205.2,425.6,205.2z"/>
	</g>
</g>
</svg>
