<svg xmlns="http://www.w3.org/2000/svg" viewBox="0 0 76.34 111.31"><defs><style>.cls-1{fill:none;stroke:#1d1d1b;stroke-miterlimit:10;stroke-width:2px;}</style></defs><g id="Lag_2" data-name="Lag 2"><g id="Layer_1" data-name="Layer 1"><path class="cls-1" d="M8.13,81.15,1,110.19a.1.1,0,0,0,.16.1L24.58,91.67,68.26,23.32,51.8,12.8Z"/><line class="cls-1" x1="23.97" y1="92.59" x2="7.51" y2="82.07"/><rect class="cls-1" x="52.3" y="11.15" width="19.53" height="7.37" transform="translate(106.38 60.76) rotate(-147.42)"/><path class="cls-1" d="M55.84,6.47a1.06,1.06,0,0,1,.1-.17l2.43-3.81a3.21,3.21,0,0,1,4.44-1l11,7.05a3.23,3.23,0,0,1,1,4.45L72.4,16.82a1.11,1.11,0,0,1-.12.16"/></g></g></svg>