<svg xmlns="http://www.w3.org/2000/svg" viewBox="0 0 69.86 86.88"><defs><style>.cls-1,.cls-2{fill:none;stroke:#1d1d1b;stroke-miterlimit:10;stroke-width:2px;}.cls-2{stroke-linecap:round;}</style></defs><g id="Lag_2" data-name="Lag 2"><g id="Layer_1" data-name="Layer 1"><path class="cls-1" d="M56,85.88H13.68A6.61,6.61,0,0,1,7.14,79.5L4.47,22.33H66.18L63.31,78.74A7.43,7.43,0,0,1,56,85.88Z"/><path class="cls-1" d="M5,12.41H64.66a4.2,4.2,0,0,1,4.2,4.2v4a1.7,1.7,0,0,1-1.7,1.7H2.95A1.95,1.95,0,0,1,1,20.39v-4A4,4,0,0,1,5,12.41Z"/><line class="cls-2" x1="18.9" y1="31.35" x2="22.51" y2="76.11"/><line class="cls-2" x1="50.96" y1="31.35" x2="47.35" y2="76.11"/><line class="cls-2" x1="34.92" y1="31.35" x2="34.92" y2="76.11"/><path class="cls-2" d="M20.3,8.29V6.36A5.36,5.36,0,0,1,25.66,1H44.18a5.36,5.36,0,0,1,5.36,5.36V8.29"/></g></g></svg>