<svg xmlns="http://www.w3.org/2000/svg" viewBox="0 0 69.89 66.83"><defs><style>.cls-1{fill:none;stroke:#1d1d1b;stroke-linecap:round;stroke-miterlimit:10;stroke-width:1.68px;}</style></defs><g id="Lag_2" data-name="Lag 2"><g id="Layer_1" data-name="Layer 1"><path class="cls-1" d="M53.88,65.61,36,56.3a2.09,2.09,0,0,0-2,0L16.28,65.74a2.11,2.11,0,0,1-3.06-2.21l3.34-19.85a2.11,2.11,0,0,0-.62-1.86l-14.46-14a2.1,2.1,0,0,1,1.16-3.59l19.91-3a2.13,2.13,0,0,0,1.58-1.16L33,2a2.1,2.1,0,0,1,3.77,0l9,18a2.08,2.08,0,0,0,1.59,1.14L67.24,24a2.11,2.11,0,0,1,1.18,3.59L54.05,41.69a2.1,2.1,0,0,0-.6,1.86l3.47,19.83A2.1,2.1,0,0,1,53.88,65.61Z"/></g></g></svg>