<svg xmlns="http://www.w3.org/2000/svg" viewBox="0 0 69.9 66.83"><defs><style>.cls-1{fill:#ffed00;}.cls-1,.cls-2{stroke:#1d1d1b;stroke-linecap:round;stroke-miterlimit:10;stroke-width:1.68px;}.cls-2{fill:none;}</style></defs><g id="Lag_2" data-name="Lag 2"><g id="Layer_1" data-name="Layer 1"><path class="cls-1" d="M54.06,41.69a2.1,2.1,0,0,0-.6,1.87l3.47,19.82a2.11,2.11,0,0,1-3,2.23L36,56.31a2.12,2.12,0,0,0-2,0L16.29,65.74a2.1,2.1,0,0,1-3.06-2.21l3.33-19.85A2.08,2.08,0,0,0,16,41.82l-14.46-14a2.09,2.09,0,0,1-.65-1.5,2.12,2.12,0,0,1,1.8-2.1l19.91-3a2.07,2.07,0,0,0,1.58-1.16L33,2a2.11,2.11,0,0,1,3.78,0l9,18a2.1,2.1,0,0,0,1.58,1.15L67.24,24a2.11,2.11,0,0,1,1.82,2.1,2.06,2.06,0,0,1-.64,1.49Z"/><path class="cls-2" d="M54.06,41.69a2.1,2.1,0,0,0-.6,1.87l3.47,19.82a2.11,2.11,0,0,1-3,2.23L36,56.31a2.12,2.12,0,0,0-2,0L16.29,65.74a2.1,2.1,0,0,1-3.06-2.21l3.33-19.85A2.08,2.08,0,0,0,16,41.82l-14.46-14a2.09,2.09,0,0,1-.65-1.5,2.12,2.12,0,0,1,1.8-2.1l19.91-3a2.07,2.07,0,0,0,1.58-1.16L33,2a2.11,2.11,0,0,1,3.78,0l9,18a2.1,2.1,0,0,0,1.58,1.15L67.24,24a2.11,2.11,0,0,1,1.82,2.1,2.06,2.06,0,0,1-.64,1.49Z"/></g></g></svg>