<svg xmlns="http://www.w3.org/2000/svg" viewBox="0 0 108.58 108.58"><defs><style>.cls-1{fill:none;stroke:#1d1d1b;stroke-miterlimit:10;stroke-width:2px;}</style></defs><g id="Lag_2" data-name="Lag 2"><g id="Layer_1" data-name="Layer 1"><circle class="cls-1" cx="54.29" cy="54.29" r="53.29"/><line class="cls-1" x1="16.72" y1="16.72" x2="91.86" y2="91.86"/><polygon class="cls-1" points="70.62 81.97 54.29 71.78 54.29 55.07 70.05 46.84 85.82 55.07 85.82 74.46 70.62 81.97"/><polyline class="cls-1" points="85.82 55.07 70.62 63.14 54.29 55.07 70.62 63.14 70.62 81.97"/><polygon class="cls-1" points="54.85 53.99 38.53 43.8 38.53 27.1 54.29 18.87 70.05 27.1 70.05 46.49 54.85 53.99"/><polyline class="cls-1" points="70.05 27.1 54.85 35.17 38.53 27.1 54.85 35.17 54.85 53.99"/><polygon class="cls-1" points="39.09 80.07 22.76 69.88 22.76 53.18 38.53 44.94 54.29 53.18 54.29 72.56 39.09 80.07"/><polyline class="cls-1" points="54.29 53.18 39.09 61.24 22.76 53.18 39.09 61.24 39.09 80.07"/></g></g></svg>